# File produced by Open Asset Import Library (http://www.assimp.sf.net)
# (assimp v3.1.137539927)

mtllib Chain%20link%20fence.mtl

# vertex positions
v -97.197861 6.214363 0.000000
v 0.000000 6.214363 0.000000
v 0.000000 107.684654 0.000000
v -97.197861 107.684654 0.000000
v 97.197861 6.214363 0.000000
v 97.197861 107.684654 0.000000
v 0.000000 209.154938 0.000000
v -97.197861 209.154938 0.000000
v 97.197861 209.154938 0.000000
v 103.125854 0.000000 4.302346
v 105.057709 0.000000 1.643364
v 105.057709 2.028503 1.643363
v 103.125854 2.028496 4.302346
v 105.057709 0.000000 -1.643358
v 105.057709 2.028503 -1.643358
v 103.125824 0.000000 -4.302348
v 103.125824 2.028503 -4.302348
v 100.000000 0.000000 -5.317997
v 100.000000 2.028503 -5.317997
v 96.874146 0.000000 -4.302346
v 96.874146 2.028496 -4.302346
v 94.942291 0.000000 -1.643361
v 94.942291 2.028503 -1.643361
v 94.942291 0.000000 1.643364
v 94.942291 2.028503 1.643364
v 96.874146 0.000000 4.302346
v 96.874146 2.028503 4.302346
v 100.000000 0.000000 5.317995
v 100.000000 2.028503 5.317995
v 102.861237 217.339935 3.938156
v 104.629578 217.339935 1.504242
v 104.629578 218.375870 1.504242
v 102.861237 218.375870 3.938156
v 104.629578 217.339935 -1.504240
v 104.629578 218.375870 -1.504240
v 102.861237 217.339935 -3.938154
v 102.861237 218.375870 -3.938154
v 100.000000 217.339935 -4.867826
v 100.000000 218.375870 -4.867826
v 97.138763 217.339935 -3.938154
v 97.138763 218.375870 -3.938154
v 95.370422 217.339935 -1.504239
v 95.370422 218.375870 -1.504239
v 95.370422 217.339935 1.504243
v 95.370422 218.375870 1.504243
v 97.138763 217.339935 3.938156
v 97.138763 218.375870 3.938156
v 100.000000 217.339935 4.867827
v 100.000000 218.375870 4.867827
v 102.075180 217.339935 2.856245
v 103.357719 217.339935 1.090989
v 103.357712 217.339935 -1.090987
v 102.075180 217.339935 -2.856243
v 100.000000 217.339935 -3.530511
v 97.924820 217.339935 -2.856242
v 96.642288 217.339935 -1.090987
v 96.642288 217.339935 1.090989
v 97.924820 217.339935 2.856245
v 100.000000 217.339935 3.530512
v 103.926636 218.484680 5.404547
v 106.353424 218.484680 2.064354
v 106.042465 220.080002 1.963317
v 103.734451 220.080002 5.140030
v 106.353424 218.484680 -2.064352
v 106.042465 220.080002 -1.963316
v 103.926636 218.484680 -5.404546
v 103.734451 220.080002 -5.140028
v 100.000000 218.484680 -6.680386
v 100.000000 220.080002 -6.353425
v 96.073364 218.484680 -5.404545
v 96.265549 220.080002 -5.140028
v 93.646576 218.484680 -2.064350
v 93.957535 220.080002 -1.963315
v 93.646576 218.484680 2.064355
v 93.957535 220.080002 1.963318
v 96.073364 218.484680 5.404547
v 96.265549 220.080002 5.140030
v 100.000000 218.484680 6.680387
v 100.000000 220.080002 6.353426
v 105.140030 221.519150 1.670098
v 103.176712 221.519150 4.372371
v 105.140030 221.519150 -1.670096
v 103.176712 221.519150 -4.372369
v 100.000000 221.519150 -5.404546
v 96.823288 221.519150 -4.372369
v 94.859970 221.519150 -1.670095
v 94.859970 221.519150 1.670098
v 96.823288 221.519150 4.372371
v 100.000000 221.519150 5.404547
v 103.734451 222.661270 1.213397
v 102.308014 222.661270 3.176714
v 103.734451 222.661270 -1.213395
v 102.308014 222.661270 -3.176712
v 100.000000 222.661270 -3.926632
v 97.691986 222.661270 -3.176712
v 96.265549 222.661270 -1.213395
v 96.265549 222.661270 1.213398
v 97.691986 222.661270 3.176713
v 100.000000 222.661270 3.926634
v 101.963318 223.394562 0.637921
v 101.213394 223.394562 1.670098
v 101.963318 223.394562 -0.637919
v 101.213394 223.394562 -1.670096
v 100.000000 223.394562 -2.064352
v 98.786606 223.394562 -1.670095
v 98.036682 223.394562 -0.637919
v 98.036682 223.394562 0.637921
v 98.786606 223.394562 1.670098
v 100.000000 223.394562 2.064355
v 100.000000 2.028503 4.266534
v 102.507813 2.028496 3.451698
v 102.507797 4.056999 3.451697
v 100.000000 4.056999 4.266534
v 97.492188 2.028503 3.451698
v 97.492188 4.056999 3.451697
v 95.942291 2.028503 1.318441
v 95.942291 4.056999 1.318441
v 95.942291 2.028503 -1.318438
v 95.942291 4.056999 -1.318438
v 97.492188 2.028503 -3.451695
v 97.492188 4.056999 -3.451695
v 100.000000 2.028503 -4.266533
v 100.000000 4.056999 -4.266533
v 102.507797 2.028503 -3.451696
v 102.507797 4.056999 -3.451695
v 104.057709 2.028503 -1.318439
v 104.057709 4.056999 -1.318439
v 104.057709 2.028496 1.318440
v 104.057709 4.056999 1.318440
v 102.075180 0.000000 2.856245
v 103.357719 0.000000 1.090989
v 104.057709 0.000000 1.318441
v 102.507813 0.000000 3.451698
v 103.357712 0.000000 -1.090987
v 104.057709 0.000000 -1.318439
v 102.075180 0.000000 -2.856243
v 102.507797 0.000000 -3.451696
v 100.000000 0.000000 -3.530511
v 100.000000 0.000000 -4.266533
v 97.924820 0.000000 -2.856242
v 97.492188 0.000000 -3.451695
v 96.642288 0.000000 -1.090987
v 95.942291 0.000000 -1.318438
v 96.642288 0.000000 1.090989
v 95.942291 0.000000 1.318441
v 97.924820 0.000000 2.856245
v 97.492188 0.000000 3.451698
v 100.000000 0.000000 3.530512
v 100.000000 0.000000 4.266534
v 102.075180 4.056999 2.856245
v 100.000000 4.056999 3.530512
v 97.924820 4.056999 2.856245
v 96.642288 4.056999 1.090989
v 96.642288 4.056999 -1.090987
v 97.924820 4.056999 -2.856242
v 100.000000 4.056999 -3.530511
v 102.075180 4.056999 -2.856242
v 103.357712 4.056999 -1.090987
v 103.357712 4.056999 1.090989
v 100.000000 208.868790 3.530512
v 102.075180 208.868790 2.856245
v 102.075180 210.638306 2.856245
v 100.000000 210.638306 3.530512
v 96.707329 209.308685 2.382941
v 96.715233 210.796799 3.170881
v 100.000000 208.868790 -3.530511
v 96.706436 209.140137 -2.214386
v 96.714005 210.566559 -3.109184
v 100.000000 210.638306 -3.530511
v 102.075180 208.868790 -2.856243
v 102.075180 210.638306 -2.856243
v 103.357712 208.868790 -1.090987
v 103.357712 210.638306 -1.090987
v 103.357719 208.868790 1.090989
v 103.357719 210.638306 1.090989
v 100.000000 212.407822 3.530512
v 102.075180 212.407822 2.856245
v 102.075180 214.177338 2.856245
v 100.000000 214.177338 3.530512
v 96.724159 212.479523 3.109186
v 96.731735 213.905945 2.214388
v 100.000000 212.407822 -3.530511
v 96.722931 212.249283 -3.170878
v 96.730835 213.737396 -2.382939
v 100.000000 214.177338 -3.530511
v 102.075180 212.407822 -2.856243
v 102.075180 214.177338 -2.856243
v 103.357712 212.407822 -1.090987
v 103.357712 214.177338 -1.090987
v 103.357719 212.407822 1.090989
v 103.357719 214.177338 1.090989
v 96.702576 208.413895 0.956494
v 96.252167 209.686813 1.976025
v 96.248230 208.944824 0.793161
v 96.258728 210.920807 2.629415
v 96.702240 208.352203 -0.726244
v 96.247955 208.893661 -0.602229
v 96.251434 209.547043 -1.836252
v 96.257706 210.729889 -2.578253
v 96.272415 213.499039 1.836254
v 96.266129 212.316193 2.578255
v 96.735916 214.693878 0.726246
v 96.275879 214.152420 0.602231
v 96.735588 214.632187 -0.956492
v 96.275604 214.101257 -0.793159
v 96.271660 213.359268 -1.976023
v 96.265114 212.125275 -2.629412
v -103.125854 0.000000 -4.302344
v -105.057709 0.000000 -1.643363
v -105.057709 2.028503 -1.643362
v -103.125854 2.028496 -4.302344
v -105.057709 0.000000 1.643359
v -105.057709 2.028503 1.643359
v -103.125824 0.000000 4.302350
v -103.125824 2.028503 4.302350
v -100.000000 0.000000 5.317998
v -100.000000 2.028503 5.317998
v -96.874146 0.000000 4.302347
v -96.874146 2.028496 4.302347
v -94.942291 0.000000 1.643362
v -94.942291 2.028503 1.643363
v -94.942291 0.000000 -1.643362
v -94.942291 2.028503 -1.643362
v -96.874146 0.000000 -4.302344
v -96.874146 2.028503 -4.302344
v -100.000000 0.000000 -5.317994
v -100.000000 2.028503 -5.317994
v -102.861237 217.339935 -3.938154
v -104.629578 217.339935 -1.504241
v -104.629578 218.375870 -1.504241
v -102.861237 218.375870 -3.938154
v -104.629578 217.339935 1.504242
v -104.629578 218.375870 1.504242
v -102.861237 217.339935 3.938155
v -102.861237 218.375870 3.938155
v -100.000000 217.339935 4.867827
v -100.000000 218.375870 4.867827
v -97.138763 217.339935 3.938155
v -97.138763 218.375870 3.938155
v -95.370422 217.339935 1.504241
v -95.370422 218.375870 1.504241
v -95.370422 217.339935 -1.504241
v -95.370422 218.375870 -1.504241
v -97.138763 217.339935 -3.938154
v -97.138763 218.375870 -3.938154
v -100.000000 217.339935 -4.867826
v -100.000000 218.375870 -4.867826
v -102.075180 217.339935 -2.856243
v -103.357719 217.339935 -1.090988
v -103.357712 217.339935 1.090989
v -102.075180 217.339935 2.856245
v -100.000000 217.339935 3.530512
v -97.924820 217.339935 2.856244
v -96.642288 217.339935 1.090988
v -96.642288 217.339935 -1.090988
v -97.924820 217.339935 -2.856243
v -100.000000 217.339935 -3.530511
v -103.926636 218.484680 -5.404545
v -106.353424 218.484680 -2.064352
v -106.042465 220.080002 -1.963316
v -103.734451 220.080002 -5.140028
v -106.353424 218.484680 2.064354
v -106.042465 220.080002 1.963318
v -103.926636 218.484680 5.404548
v -103.734451 220.080002 5.140030
v -100.000000 218.484680 6.680387
v -100.000000 220.080002 6.353426
v -96.073364 218.484680 5.404546
v -96.265549 220.080002 5.140029
v -93.646576 218.484680 2.064352
v -93.957535 220.080002 1.963316
v -93.646576 218.484680 -2.064354
v -93.957535 220.080002 -1.963316
v -96.073364 218.484680 -5.404545
v -96.265549 220.080002 -5.140028
v -100.000000 218.484680 -6.680386
v -100.000000 220.080002 -6.353424
v -105.140030 221.519150 -1.670096
v -103.176712 221.519150 -4.372370
v -105.140030 221.519150 1.670098
v -103.176712 221.519150 4.372371
v -100.000000 221.519150 5.404548
v -96.823288 221.519150 4.372370
v -94.859970 221.519150 1.670097
v -94.859970 221.519150 -1.670096
v -96.823288 221.519150 -4.372369
v -100.000000 221.519150 -5.404545
v -103.734451 222.661270 -1.213396
v -102.308014 222.661270 -3.176713
v -103.734451 222.661270 1.213397
v -102.308014 222.661270 3.176713
v -100.000000 222.661270 3.926633
v -97.691986 222.661270 3.176713
v -96.265549 222.661270 1.213397
v -96.265549 222.661270 -1.213396
v -97.691986 222.661270 -3.176712
v -100.000000 222.661270 -3.926632
v -101.963318 223.394562 -0.637920
v -101.213394 223.394562 -1.670096
v -101.963318 223.394562 0.637921
v -101.213394 223.394562 1.670097
v -100.000000 223.394562 2.064353
v -98.786606 223.394562 1.670097
v -98.036682 223.394562 0.637921
v -98.036682 223.394562 -0.637920
v -98.786606 223.394562 -1.670096
v -100.000000 223.394562 -2.064354
v -100.000000 2.028503 -4.266533
v -102.507813 2.028496 -3.451696
v -102.507797 4.056999 -3.451696
v -100.000000 4.056999 -4.266533
v -97.492188 2.028503 -3.451696
v -97.492188 4.056999 -3.451696
v -95.942291 2.028503 -1.318439
v -95.942291 4.056999 -1.318439
v -95.942291 2.028503 1.318439
v -95.942291 4.056999 1.318439
v -97.492188 2.028503 3.451696
v -97.492188 4.056999 3.451696
v -100.000000 2.028503 4.266535
v -100.000000 4.056999 4.266535
v -102.507797 2.028503 3.451697
v -102.507797 4.056999 3.451697
v -104.057709 2.028503 1.318440
v -104.057709 4.056999 1.318440
v -104.057709 2.028496 -1.318439
v -104.057709 4.056999 -1.318439
v -102.075180 0.000000 -2.856243
v -103.357719 0.000000 -1.090988
v -104.057709 0.000000 -1.318440
v -102.507813 0.000000 -3.451696
v -103.357712 0.000000 1.090989
v -104.057709 0.000000 1.318441
v -102.075180 0.000000 2.856245
v -102.507797 0.000000 3.451697
v -100.000000 0.000000 3.530512
v -100.000000 0.000000 4.266535
v -97.924820 0.000000 2.856244
v -97.492188 0.000000 3.451696
v -96.642288 0.000000 1.090988
v -95.942291 0.000000 1.318439
v -96.642288 0.000000 -1.090988
v -95.942291 0.000000 -1.318439
v -97.924820 0.000000 -2.856243
v -97.492188 0.000000 -3.451696
v -100.000000 0.000000 -3.530511
v -100.000000 0.000000 -4.266533
v -102.075180 4.056999 -2.856243
v -100.000000 4.056999 -3.530511
v -97.924820 4.056999 -2.856243
v -96.642288 4.056999 -1.090988
v -96.642288 4.056999 1.090988
v -97.924820 4.056999 2.856244
v -100.000000 4.056999 3.530512
v -102.075180 4.056999 2.856244
v -103.357712 4.056999 1.090989
v -103.357712 4.056999 -1.090988
v -100.000000 208.868790 -3.530510
v -102.075180 208.868790 -2.856243
v -102.075180 210.638306 -2.856243
v -100.000000 210.638306 -3.530510
v -96.707329 209.308685 -2.382939
v -96.715233 210.796799 -3.170879
v -100.000000 208.868790 3.530512
v -96.706436 209.140137 2.214387
v -96.714005 210.566559 3.109185
v -100.000000 210.638306 3.530512
v -102.075180 208.868790 2.856245
v -102.075180 210.638306 2.856245
v -103.357712 208.868790 1.090989
v -103.357712 210.638306 1.090989
v -103.357719 208.868790 -1.090988
v -103.357719 210.638306 -1.090988
v -100.000000 212.407822 -3.530510
v -102.075180 212.407822 -2.856243
v -102.075180 214.177338 -2.856243
v -100.000000 214.177338 -3.530510
v -96.724159 212.479523 -3.109185
v -96.731735 213.905945 -2.214386
v -100.000000 212.407822 3.530512
v -96.722931 212.249283 3.170879
v -96.730835 213.737396 2.382940
v -100.000000 214.177338 3.530512
v -102.075180 212.407822 2.856245
v -102.075180 214.177338 2.856245
v -103.357712 212.407822 1.090989
v -103.357712 214.177338 1.090989
v -103.357719 212.407822 -1.090988
v -103.357719 214.177338 -1.090988
v -96.702576 208.413895 -0.956492
v -96.252167 209.686813 -1.976023
v -96.248230 208.944824 -0.793160
v -96.258728 210.920807 -2.629413
v -96.702240 208.352203 0.726246
v -96.247955 208.893661 0.602230
v -96.251434 209.547043 1.836254
v -96.257706 210.729889 2.578254
v -96.272415 213.499039 -1.836253
v -96.266129 212.316193 -2.578254
v -96.735916 214.693878 -0.726245
v -96.275879 214.152420 -0.602230
v -96.735588 214.632187 0.956493
v -96.275604 214.101257 0.793160
v -96.271660 213.359268 1.976024
v -96.265114 212.125275 2.629413
v -102.075180 207.709915 -2.856243
v -102.075180 206.368942 -2.856243
v -103.357719 206.368942 -1.090988
v -103.357719 207.709915 -1.090988
v -100.000000 207.709915 -3.530511
v -100.000000 206.368942 -3.530511
v -103.357712 206.368942 1.090989
v -103.357712 207.709915 1.090989
v -102.075180 206.368942 2.856245
v -102.075180 207.709915 2.856245
v -100.000000 206.368942 3.530512
v -100.000000 207.709915 3.530512
v -97.924820 206.313660 2.856244
v -97.571869 207.647980 2.670305
v -96.642288 206.358170 1.090988
v -96.672264 207.695755 0.908635
v -96.642288 206.368088 -1.090988
v -96.671593 207.707611 -1.025604
v -97.924820 206.325760 -2.856243
v -97.592026 207.659729 -2.726867
v -102.075180 216.337875 -2.856243
v -102.075180 215.217667 -2.856243
v -103.357719 215.217667 -1.090988
v -103.357719 216.337875 -1.090988
v -100.000000 216.337875 -3.530511
v -100.000000 215.217667 -3.530511
v -103.357712 215.217667 1.090989
v -103.357712 216.337875 1.090989
v -102.075180 215.217667 2.856245
v -102.075180 216.337875 2.856245
v -100.000000 215.217667 3.530512
v -100.000000 216.337875 3.530512
v -97.625595 215.266434 2.737630
v -97.924820 216.379959 2.856244
v -96.687630 215.221039 1.025627
v -96.642288 216.339539 1.090988
v -96.689095 215.235886 -0.908635
v -96.642288 216.350922 -1.090988
v -97.606560 215.278458 -2.685024
v -97.924820 216.392258 -2.856243
v 102.075180 207.599533 2.856245
v 102.075180 206.479324 2.856245
v 103.357719 206.479324 1.090989
v 103.357719 207.599533 1.090989
v 100.000000 207.599533 3.530512
v 100.000000 206.479324 3.530512
v 103.357712 206.479324 -1.090987
v 103.357712 207.599533 -1.090987
v 102.075180 206.479324 -2.856243
v 102.075180 207.599533 -2.856243
v 100.000000 206.479324 -3.530511
v 100.000000 207.599533 -3.530511
v 97.924820 206.433136 -2.856242
v 97.629974 207.547806 -2.700913
v 96.642288 206.470322 -1.090987
v 96.667328 207.587708 -0.938654
v 96.642288 206.478607 1.090989
v 96.666771 207.597610 1.036369
v 97.924820 206.443253 2.856245
v 97.646812 207.557602 2.748167
v 102.075180 216.337875 2.856245
v 102.075180 215.217667 2.856245
v 103.357719 215.217667 1.090989
v 103.357719 216.337875 1.090989
v 100.000000 216.337875 3.530512
v 100.000000 215.217667 3.530512
v 103.357712 215.217667 -1.090987
v 103.357712 216.337875 -1.090987
v 102.075180 215.217667 -2.856243
v 102.075180 216.337875 -2.856243
v 100.000000 215.217667 -3.530511
v 100.000000 216.337875 -3.530511
v 97.625595 215.266434 -2.737629
v 97.924820 216.379959 -2.856242
v 96.687630 215.221039 -1.025625
v 96.642288 216.339539 -1.090987
v 96.689095 215.235886 0.908636
v 96.642288 216.350922 1.090989
v 97.606560 215.278458 2.685026
v 97.924820 216.392258 2.856245
v 97.197861 6.214363 -0.558272
v 0.000000 6.214363 -0.558272
v 0.000000 107.684654 -0.558272
v 97.197861 107.684654 -0.558272
v -97.197861 6.214363 -0.558272
v -97.197861 107.684654 -0.558272
v 0.000000 209.154938 -0.558272
v 97.197861 209.154938 -0.558272
v -97.197861 209.154938 -0.558272

# UV coordinates
vt 0.011601 0.493181
vt 0.228829 0.493217
vt 0.228791 0.719994
vt 0.011563 0.719958
vt 0.446057 0.493254
vt 0.446019 0.720030
vt 0.228753 0.946771
vt 0.011525 0.946734
vt 0.445981 0.946807
vt 0.798450 0.016184
vt 0.809783 0.010926
vt 0.811860 0.017637
vt 0.802348 0.022026
vt 0.822149 0.009119
vt 0.822226 0.016143
vt 0.834518 0.010914
vt 0.832588 0.017668
vt 0.845859 0.016162
vt 0.842085 0.022087
vt 0.855226 0.024425
vt 0.849929 0.029037
vt 0.861826 0.034971
vt 0.855448 0.037999
vt 0.865288 0.046536
vt 0.858171 0.048601
vt 0.778933 0.046182
vt 0.782559 0.034958
vt 0.788819 0.037854
vt 0.785664 0.048515
vt 0.789106 0.024446
vt 0.794474 0.028946
vt 0.648981 0.598996
vt 0.635457 0.589968
vt 0.636880 0.584619
vt 0.653276 0.595505
vt 0.619210 0.590614
vt 0.617217 0.585450
vt 0.606445 0.600687
vt 0.601797 0.597681
vt 0.602040 0.616338
vt 0.596513 0.616639
vt 0.607676 0.631589
vt 0.603380 0.635081
vt 0.621199 0.640616
vt 0.619776 0.645965
vt 0.637444 0.639970
vt 0.639437 0.645134
vt 0.650208 0.629898
vt 0.654856 0.632905
vt 0.654615 0.614248
vt 0.660142 0.613949
vt 0.643315 0.603488
vt 0.633514 0.596933
vt 0.621731 0.597391
vt 0.612469 0.604686
vt 0.609264 0.616033
vt 0.613340 0.627097
vt 0.623141 0.633651
vt 0.634922 0.633194
vt 0.644185 0.625898
vt 0.647390 0.614552
vt 0.658439 0.735261
vt 0.677633 0.760111
vt 0.668914 0.763382
vt 0.653308 0.743033
vt 0.678555 0.791496
vt 0.669578 0.789019
vt 0.660853 0.817430
vt 0.655047 0.810149
vt 0.631289 0.828006
vt 0.630871 0.818703
vt 0.601155 0.819185
vt 0.606285 0.811413
vt 0.581959 0.794336
vt 0.590678 0.791063
vt 0.581036 0.762950
vt 0.590013 0.765427
vt 0.598738 0.737015
vt 0.604545 0.744296
vt 0.628304 0.726439
vt 0.628721 0.735742
vt 0.659910 0.766746
vt 0.648001 0.751046
vt 0.660317 0.786448
vt 0.649066 0.802625
vt 0.630454 0.809100
vt 0.611592 0.803399
vt 0.599682 0.787700
vt 0.599275 0.767998
vt 0.610526 0.751820
vt 0.629138 0.745345
vt 0.650352 0.770207
vt 0.642302 0.759464
vt 0.650550 0.783629
vt 0.642820 0.794604
vt 0.630116 0.798940
vt 0.617290 0.794981
vt 0.609240 0.784238
vt 0.609042 0.770816
vt 0.616772 0.759840
vt 0.629476 0.755505
vt 0.640240 0.773723
vt 0.636188 0.768253
vt 0.640303 0.780530
vt 0.636352 0.786073
vt 0.629897 0.788236
vt 0.623404 0.786192
vt 0.619352 0.780722
vt 0.619289 0.773915
vt 0.623240 0.768372
vt 0.629694 0.766209
vt 0.491757 0.681351
vt 0.496626 0.694832
vt 0.489795 0.700142
vt 0.483110 0.681632
vt 0.508488 0.702876
vt 0.506084 0.711187
vt 0.522813 0.702412
vt 0.525753 0.710549
vt 0.534130 0.693616
vt 0.541291 0.698471
vt 0.538115 0.679848
vt 0.546762 0.679567
vt 0.533247 0.666367
vt 0.540077 0.661057
vt 0.521384 0.658323
vt 0.523789 0.650012
vt 0.507059 0.658787
vt 0.504119 0.650650
vt 0.495743 0.667583
vt 0.488581 0.662728
vt 0.796386 0.066159
vt 0.804439 0.059880
vt 0.808068 0.065939
vt 0.801412 0.071087
vt 0.790291 0.074226
vt 0.796226 0.077809
vt 0.786254 0.082883
vt 0.792682 0.086078
vt 0.858070 0.073831
vt 0.862122 0.082791
vt 0.855269 0.085820
vt 0.852053 0.077629
vt 0.851818 0.065810
vt 0.846919 0.070906
vt 0.843666 0.059629
vt 0.840236 0.065806
vt 0.834180 0.055765
vt 0.832465 0.062619
vt 0.824016 0.054491
vt 0.824135 0.061555
vt 0.813869 0.055896
vt 0.815814 0.062688
vt 0.832143 0.092804
vt 0.825246 0.091384
vt 0.824983 0.089024
vt 0.833318 0.090740
vt 0.818831 0.094290
vt 0.817231 0.092534
vt 0.815349 0.100410
vt 0.813023 0.099931
vt 0.816130 0.107409
vt 0.813966 0.108389
vt 0.820875 0.112612
vt 0.819701 0.114677
vt 0.827772 0.114032
vt 0.828036 0.116393
vt 0.834187 0.111127
vt 0.835788 0.112882
vt 0.837669 0.105006
vt 0.839996 0.105485
vt 0.836888 0.098008
vt 0.839052 0.097028
vt 0.809286 0.068133
vt 0.803152 0.072888
vt 0.798388 0.079058
vt 0.795380 0.086249
vt 0.852622 0.085894
vt 0.849856 0.078769
vt 0.845111 0.072641
vt 0.838942 0.067957
vt 0.831774 0.065032
vt 0.824093 0.064066
vt 0.816423 0.065123
vt 0.824606 0.085651
vt 0.834996 0.087790
vt 0.812808 0.021083
vt 0.804239 0.025057
vt 0.814944 0.090027
vt 0.822153 0.019716
vt 0.809699 0.099247
vt 0.831499 0.021072
vt 0.810875 0.109789
vt 0.840070 0.025037
vt 0.818023 0.117626
vt 0.847156 0.031281
vt 0.828412 0.119765
vt 0.852170 0.039279
vt 0.838075 0.115389
vt 0.854437 0.048252
vt 0.843319 0.106169
vt 0.792064 0.039307
vt 0.789487 0.048333
vt 0.842143 0.095628
vt 0.797144 0.031310
vt 0.912553 0.873157
vt 0.921733 0.865432
vt 0.923964 0.870995
vt 0.916181 0.878840
vt 0.904012 0.889037
vt 0.910507 0.893681
vt 0.967852 0.870477
vt 0.978051 0.885103
vt 0.972002 0.889699
vt 0.964351 0.876542
vt 0.957669 0.863600
vt 0.955924 0.869448
vt 0.945706 0.860001
vt 0.945363 0.865709
vt 0.933178 0.860655
vt 0.934137 0.866255
vt 0.919771 0.883998
vt 0.926006 0.875883
vt 0.928075 0.880017
vt 0.923167 0.888400
vt 0.917133 0.899121
vt 0.924926 0.904527
vt 0.961009 0.882157
vt 0.966131 0.895769
vt 0.959358 0.902003
vt 0.957449 0.886532
vt 0.954246 0.874612
vt 0.952445 0.879015
vt 0.945015 0.870639
vt 0.944602 0.874972
vt 0.934965 0.871088
vt 0.935794 0.875330
vt 0.896974 0.889213
vt 0.903793 0.892434
vt 0.897903 0.892408
vt 0.909722 0.896645
vt 0.985141 0.885455
vt 0.991010 0.889824
vt 0.988742 0.891945
vt 0.983982 0.888481
vt 0.978319 0.888461
vt 0.972957 0.892665
vt 0.924908 0.907354
vt 0.916484 0.902036
vt 0.936426 0.908459
vt 0.936532 0.911016
vt 0.948632 0.907130
vt 0.948843 0.909627
vt 0.959627 0.904818
vt 0.967053 0.898623
vt 0.933441 0.010957
vt 0.946611 0.009164
vt 0.946620 0.016635
vt 0.935579 0.018116
vt 0.959747 0.011201
vt 0.957624 0.018364
vt 0.971754 0.016901
vt 0.967679 0.023162
vt 0.981630 0.025785
vt 0.975948 0.030635
vt 0.988539 0.037070
vt 0.981726 0.040223
vt 0.992101 0.049405
vt 0.984511 0.051527
vt 0.900264 0.048131
vt 0.904237 0.036232
vt 0.910865 0.039378
vt 0.907398 0.050683
vt 0.911309 0.025121
vt 0.916971 0.029963
vt 0.921333 0.016432
vt 0.925418 0.022685
vt 0.530923 0.594511
vt 0.517444 0.585417
vt 0.518894 0.580075
vt 0.535236 0.591042
vt 0.501194 0.585984
vt 0.499227 0.580810
vt 0.488381 0.595993
vt 0.483748 0.592964
vt 0.483898 0.611623
vt 0.478369 0.611897
vt 0.489459 0.626902
vt 0.485147 0.630373
vt 0.502938 0.635994
vt 0.501489 0.641337
vt 0.519187 0.635428
vt 0.521155 0.640602
vt 0.531999 0.625419
vt 0.536632 0.628448
vt 0.536482 0.609790
vt 0.542011 0.609518
vt 0.525235 0.598975
vt 0.515467 0.592372
vt 0.503683 0.592772
vt 0.494384 0.600023
vt 0.491124 0.611354
vt 0.495146 0.622437
vt 0.504915 0.629039
vt 0.516698 0.628639
vt 0.525996 0.621389
vt 0.529257 0.610059
vt 0.539730 0.733835
vt 0.560177 0.759118
vt 0.551225 0.762707
vt 0.534598 0.742000
vt 0.561858 0.791591
vt 0.552506 0.789234
vt 0.544131 0.818851
vt 0.537950 0.811448
vt 0.513766 0.830485
vt 0.513117 0.820863
vt 0.482360 0.822050
vt 0.487492 0.813884
vt 0.461911 0.796764
vt 0.470863 0.793175
vt 0.460232 0.764288
vt 0.469583 0.766646
vt 0.477962 0.737028
vt 0.484141 0.744433
vt 0.508328 0.725397
vt 0.508975 0.735020
vt 0.541982 0.766398
vt 0.529288 0.750419
vt 0.542858 0.786787
vt 0.531583 0.803797
vt 0.512463 0.810931
vt 0.492801 0.805464
vt 0.480107 0.789485
vt 0.479231 0.769095
vt 0.490507 0.752085
vt 0.509627 0.744952
vt 0.532165 0.770202
vt 0.523582 0.759267
vt 0.532680 0.784095
vt 0.524931 0.795637
vt 0.511878 0.800419
vt 0.498506 0.796617
vt 0.489923 0.785680
vt 0.489408 0.771787
vt 0.497158 0.760246
vt 0.510212 0.755464
vt 0.521777 0.774077
vt 0.517455 0.768507
vt 0.521999 0.781123
vt 0.518037 0.786954
vt 0.511404 0.789342
vt 0.504633 0.787376
vt 0.500311 0.781806
vt 0.500090 0.774760
vt 0.504052 0.768929
vt 0.510685 0.766541
vt 0.607018 0.686044
vt 0.611881 0.699527
vt 0.605048 0.704834
vt 0.598371 0.686321
vt 0.623740 0.707576
vt 0.621332 0.715886
vt 0.638066 0.707117
vt 0.641002 0.715255
vt 0.649386 0.698326
vt 0.656545 0.703184
vt 0.653377 0.684560
vt 0.662024 0.684282
vt 0.648514 0.671077
vt 0.655346 0.665770
vt 0.636654 0.663028
vt 0.639063 0.654718
vt 0.622329 0.663486
vt 0.619392 0.655348
vt 0.611009 0.672278
vt 0.603850 0.667420
vt 0.921688 0.060176
vt 0.933931 0.055343
vt 0.936223 0.064132
vt 0.926167 0.068074
vt 0.911145 0.068001
vt 0.917455 0.074488
vt 0.903064 0.078183
vt 0.910584 0.082970
vt 0.897611 0.089186
vt 0.905776 0.093490
vt 0.990197 0.079747
vt 0.995131 0.091387
vt 0.986230 0.095071
vt 0.982347 0.084444
vt 0.982406 0.069245
vt 0.975953 0.075646
vt 0.972116 0.061051
vt 0.967519 0.068886
vt 0.960042 0.055795
vt 0.957628 0.064552
vt 0.947016 0.053848
vt 0.946953 0.062931
vt 0.946023 0.098305
vt 0.939200 0.101395
vt 0.937498 0.099528
vt 0.945742 0.095794
vt 0.935497 0.107905
vt 0.933023 0.107396
vt 0.936328 0.115348
vt 0.934027 0.116391
vt 0.941375 0.120882
vt 0.940126 0.123078
vt 0.948711 0.122392
vt 0.948992 0.124903
vt 0.955534 0.119302
vt 0.957236 0.121168
vt 0.959237 0.112792
vt 0.961711 0.113301
vt 0.958406 0.105348
vt 0.960707 0.104306
vt 0.953359 0.099815
vt 0.954608 0.097619
vt 0.936932 0.067281
vt 0.927666 0.070931
vt 0.919637 0.076856
vt 0.913324 0.084641
vt 0.909238 0.093793
vt 0.982825 0.095085
vt 0.979488 0.085842
vt 0.973576 0.077821
vt 0.965790 0.071611
vt 0.956665 0.067633
vt 0.946822 0.066156
vt 0.935066 0.096862
vt 0.945342 0.092207
vt 0.946505 0.020434
vt 0.936552 0.021790
vt 0.929488 0.106668
vt 0.956430 0.021973
vt 0.930739 0.117880
vt 0.965505 0.026279
vt 0.938342 0.126215
vt 0.972976 0.032993
vt 0.949392 0.128490
vt 0.978226 0.041551
vt 0.959668 0.123835
vt 0.980544 0.051118
vt 0.965246 0.114028
vt 0.914300 0.040957
vt 0.911466 0.050529
vt 0.963995 0.102817
vt 0.919787 0.032504
vt 0.956392 0.094481
vt 0.927398 0.025929
vt 0.792932 0.871318
vt 0.802858 0.864734
vt 0.804406 0.870481
vt 0.795844 0.877357
vt 0.782671 0.885990
vt 0.788586 0.891366
vt 0.847765 0.874695
vt 0.856310 0.890244
vt 0.849864 0.894208
vt 0.843680 0.880363
vt 0.838466 0.866853
vt 0.836121 0.872456
vt 0.827075 0.862027
vt 0.826109 0.867622
vt 0.814667 0.861301
vt 0.814972 0.866931
vt 0.798803 0.882879
vt 0.805863 0.875547
vt 0.807443 0.879871
vt 0.801667 0.887627
vt 0.794535 0.897537
vt 0.801653 0.903784
vt 0.839787 0.885583
vt 0.843413 0.899616
vt 0.836036 0.905073
vt 0.835800 0.889541
vt 0.833914 0.877390
vt 0.831661 0.881557
vt 0.825225 0.872457
vt 0.824345 0.876699
vt 0.815246 0.871797
vt 0.815594 0.876085
vt 0.775670 0.885275
vt 0.782121 0.889295
vt 0.776462 0.888447
vt 0.787491 0.894209
vt 0.769379 0.888824
vt 0.771351 0.891193
vt 0.863281 0.891259
vt 0.862049 0.894306
vt 0.856286 0.893641
vt 0.850517 0.897251
vt 0.801329 0.906582
vt 0.793575 0.900352
vt 0.812613 0.908963
vt 0.812443 0.911508
vt 0.824853 0.908988
vt 0.824795 0.911485
vt 0.836007 0.907891
vt 0.844033 0.902541
vt 0.717573 0.017758
vt 0.723012 0.017745
vt 0.724185 0.767760
vt 0.718746 0.767772
vt 0.712134 0.017786
vt 0.713307 0.767771
vt 0.706696 0.017824
vt 0.707868 0.767759
vt 0.701257 0.017866
vt 0.702429 0.767744
vt 0.695818 0.017906
vt 0.696990 0.767734
vt 0.690379 0.017935
vt 0.691551 0.767734
vt 0.728451 0.017747
vt 0.729623 0.767732
vt 0.733890 0.017759
vt 0.735062 0.767694
vt 0.739329 0.017774
vt 0.740501 0.767651
vt 0.744768 0.017784
vt 0.745940 0.767612
vt 0.750206 0.017784
vt 0.751378 0.767583
vt 0.755645 0.017769
vt 0.756817 0.767568
vt 0.801652 0.860598
vt 0.799890 0.855392
vt 0.813955 0.851719
vt 0.814392 0.857124
vt 0.790949 0.867248
vt 0.788153 0.862351
vt 0.828818 0.852567
vt 0.827802 0.857882
vt 0.842513 0.857903
vt 0.840167 0.862826
vt 0.853480 0.866393
vt 0.850227 0.870767
vt 0.861408 0.875457
vt 0.858519 0.881250
vt 0.868081 0.883350
vt 0.864460 0.888238
vt 0.767240 0.886822
vt 0.763419 0.882391
vt 0.771340 0.877144
vt 0.774357 0.882242
vt 0.779160 0.870348
vt 0.781290 0.876365
vt 0.809434 0.134966
vt 0.816999 0.135018
vt 0.812148 0.836490
vt 0.804583 0.836438
vt 0.801868 0.134913
vt 0.797018 0.836236
vt 0.794303 0.134861
vt 0.789452 0.836330
vt 0.786737 0.134809
vt 0.781886 0.836243
vt 0.854827 0.135280
vt 0.862392 0.135332
vt 0.857542 0.836767
vt 0.849977 0.836560
vt 0.847261 0.135227
vt 0.842410 0.836699
vt 0.839696 0.135175
vt 0.834845 0.836647
vt 0.832130 0.135123
vt 0.827279 0.836595
vt 0.824565 0.135070
vt 0.819714 0.836542
vt 0.809988 0.884466
vt 0.808527 0.882154
vt 0.815768 0.878500
vt 0.816099 0.881145
vt 0.806874 0.891008
vt 0.804120 0.889427
vt 0.823639 0.879010
vt 0.822780 0.881515
vt 0.830096 0.883621
vt 0.828225 0.885779
vt 0.833528 0.890985
vt 0.830974 0.892128
vt 0.832001 0.901357
vt 0.829699 0.900029
vt 0.824164 0.907642
vt 0.822908 0.905278
vt 0.812348 0.907424
vt 0.813387 0.904753
vt 0.805009 0.899913
vt 0.807374 0.898460
vt 0.816600 0.883687
vt 0.811712 0.886440
vt 0.822014 0.883980
vt 0.826277 0.887774
vt 0.828494 0.893005
vt 0.827075 0.899232
vt 0.821819 0.902855
vt 0.814729 0.902444
vt 0.810042 0.897693
vt 0.809058 0.892236
vt 0.919843 0.861046
vt 0.917816 0.856874
vt 0.931412 0.851590
vt 0.932326 0.856083
vt 0.909822 0.868973
vt 0.906954 0.865195
vt 0.946339 0.850771
vt 0.945994 0.855336
vt 0.960606 0.854620
vt 0.959075 0.858966
vt 0.972482 0.861970
vt 0.970110 0.865908
vt 0.981262 0.870325
vt 0.979388 0.875392
vt 0.988754 0.877590
vt 0.986277 0.881962
vt 0.996273 0.883336
vt 0.993265 0.887106
vt 0.895158 0.885741
vt 0.891984 0.881873
vt 0.898971 0.874250
vt 0.901386 0.878985
vt 0.931127 0.884316
vt 0.929412 0.882172
vt 0.936236 0.877722
vt 0.936858 0.880324
vt 0.928738 0.891187
vt 0.925815 0.889918
vt 0.944151 0.877357
vt 0.943568 0.879951
vt 0.951106 0.881245
vt 0.949473 0.883602
vt 0.955334 0.888218
vt 0.952909 0.889634
vt 0.954935 0.898732
vt 0.952495 0.897657
vt 0.947800 0.905862
vt 0.946293 0.903641
vt 0.935995 0.906952
vt 0.936742 0.904171
vt 0.927853 0.900280
vt 0.930055 0.898564
vt 0.937639 0.882803
vt 0.933062 0.886099
vt 0.943075 0.882493
vt 0.947747 0.885805
vt 0.950526 0.890774
vt 0.949794 0.897148
vt 0.944944 0.901344
vt 0.937828 0.901718
vt 0.932633 0.897502
vt 0.931055 0.892169
vt 0.922538 0.134893
vt 0.930099 0.134945
vt 0.925247 0.836424
vt 0.917686 0.836371
vt 0.914976 0.134840
vt 0.910125 0.836194
vt 0.907415 0.134788
vt 0.902563 0.836264
vt 0.975468 0.135259
vt 0.983029 0.135311
vt 0.978177 0.836787
vt 0.970616 0.836706
vt 0.967906 0.135207
vt 0.963056 0.836525
vt 0.960345 0.135154
vt 0.955493 0.836633
vt 0.952784 0.135102
vt 0.947932 0.836581
vt 0.945222 0.135050
vt 0.940370 0.836528
vt 0.937661 0.134997
vt 0.932809 0.836476
vt 0.009999 0.008687
vt 0.227227 0.008723
vt 0.227189 0.235500
vt 0.009961 0.235463
vt 0.444455 0.008759
vt 0.444418 0.235536
vt 0.227151 0.462276
vt 0.009923 0.462240
vt 0.444380 0.462312

# vertex normals
vn 0.000000 0.000000 1.000000
vn 0.809018 0.000000 0.587783
vn 1.000000 -0.000001 0.000000
vn 0.809015 0.000000 -0.587788
vn 0.309019 0.000000 -0.951056
vn -0.309017 0.000000 -0.951057
vn -0.809019 -0.000005 -0.587783
vn -1.000000 0.000001 0.000000
vn -0.809018 -0.000003 0.587783
vn -0.309016 0.000000 0.951057
vn 0.309016 0.000000 0.951057
vn 0.809018 0.000000 0.587784
vn 1.000000 0.000000 0.000000
vn 0.809018 0.000000 -0.587784
vn 0.309017 0.000000 -0.951056
vn -0.309017 0.000000 -0.951056
vn -0.809018 0.000000 -0.587784
vn -1.000000 0.000000 0.000000
vn -0.809018 0.000000 0.587784
vn -0.309017 0.000000 0.951057
vn 0.309017 0.000000 0.951057
vn 0.000000 -1.000000 0.000005
vn 0.000000 -1.000000 -0.000009
vn 0.000000 -1.000000 0.000000
vn 0.000000 -1.000000 -0.000005
vn 0.794073 0.191316 0.576928
vn 0.981528 0.191317 0.000000
vn 0.794072 0.191320 -0.576928
vn 0.303307 0.191319 -0.933489
vn -0.303308 0.191317 -0.933489
vn -0.794072 0.191320 -0.576928
vn -0.981529 0.191311 0.000000
vn -0.794072 0.191318 0.576929
vn -0.303307 0.191318 0.933489
vn 0.303308 0.191318 0.933489
vn 0.303308 0.191319 0.933489
vn 0.685408 0.531256 0.497979
vn 0.847211 0.531257 0.000000
vn 0.685408 0.531258 -0.497977
vn 0.261802 0.531254 -0.805748
vn -0.261803 0.531257 -0.805745
vn -0.685408 0.531257 -0.497979
vn -0.847212 0.531256 0.000000
vn -0.847211 0.531256 0.000000
vn -0.685408 0.531259 0.497977
vn -0.261802 0.531254 0.805747
vn 0.261803 0.531256 0.805746
vn 0.510183 0.776090 0.370672
vn 0.630621 0.776091 0.000000
vn 0.510184 0.776090 -0.370672
vn 0.194873 0.776091 -0.599757
vn -0.194873 0.776091 -0.599757
vn -0.194873 0.776090 -0.599757
vn -0.510184 0.776089 -0.370672
vn -0.630623 0.776090 0.000000
vn -0.510183 0.776090 0.370672
vn -0.194873 0.776091 0.599757
vn -0.194873 0.776090 0.599757
vn 0.194873 0.776091 0.599757
vn 0.309476 0.923941 0.224850
vn 0.382536 0.923941 0.000000
vn 0.309477 0.923944 -0.224838
vn 0.118210 0.923944 -0.363804
vn -0.118210 0.923945 -0.363803
vn -0.309477 0.923940 -0.224851
vn -0.309477 0.923941 -0.224851
vn -0.382533 0.923942 0.000000
vn -0.309477 0.923944 0.224837
vn -0.118210 0.923944 0.363804
vn 0.118210 0.923944 0.363804
vn -0.019467 -0.998013 -0.059917
vn -0.050964 -0.998014 -0.037028
vn -0.062996 -0.998014 0.000000
vn -0.050965 -0.998014 0.037024
vn -0.019467 -0.998014 0.059912
vn 0.019467 -0.998013 0.059917
vn 0.050964 -0.998014 0.037028
vn 0.062995 -0.998014 0.000000
vn 0.019467 -0.998014 -0.059912
vn 0.050964 -0.998014 -0.037023
vn 0.000000 1.000000 0.000000
vn 0.309018 0.000000 0.951056
vn -0.809018 0.000003 0.587784
vn -0.809018 0.000004 -0.587784
vn 0.309019 0.000001 -0.951056
vn 0.809017 0.000007 0.587786
vn -0.000001 -1.000000 0.000000
vn -0.000001 -1.000000 0.000001
vn 0.000001 1.000000 0.000001
vn 0.000001 1.000000 -0.000001
vn 0.000002 1.000000 -0.000001
vn 0.000001 1.000000 0.000000
vn 0.000000 1.000000 0.000001
vn 0.000001 -1.000000 0.000000
vn -0.000001 1.000000 0.000000
vn -0.000002 -1.000000 0.000001
vn 0.000000 -1.000000 0.000001
vn -0.266366 -0.151524 0.951887
vn -0.280159 -0.113407 0.953231
vn -0.180763 -0.109390 0.977424
vn -0.178292 -0.104306 0.978434
vn -0.302631 -0.122734 -0.945172
vn -0.289378 -0.162260 -0.943362
vn -0.189888 -0.144283 -0.971146
vn -0.186313 -0.137916 -0.972762
vn 0.309017 0.000000 -0.951057
vn 0.809018 0.000000 -0.587783
vn 1.000000 0.000000 -0.000003
vn 0.809016 0.000000 0.587786
vn 0.309017 0.000000 0.951056
vn -0.189984 0.144104 0.971154
vn -0.186791 0.138458 0.972594
vn -0.300320 0.132426 0.944601
vn -0.286089 0.175058 0.942076
vn -0.181197 0.109937 -0.977283
vn -0.178317 0.104059 -0.978455
vn -0.263728 0.161860 -0.950920
vn -0.278108 0.121981 -0.952773
vn 0.809016 0.000000 -0.587786
vn -0.936392 -0.231784 0.263527
vn -0.864371 -0.357117 0.354020
vn -0.762859 -0.546580 0.345393
vn -0.762106 -0.299802 0.573859
vn -0.762105 -0.299802 0.573859
vn -0.763170 -0.645758 0.023830
vn -0.876570 -0.355030 -0.324930
vn -0.950066 -0.217132 -0.224116
vn -0.762940 -0.570430 -0.304190
vn -0.762230 -0.341079 -0.550156
vn -0.760114 0.348185 0.548629
vn -0.863492 0.392828 0.316334
vn -0.940090 0.250589 0.231161
vn -0.759407 0.575866 0.302788
vn -0.759407 0.575865 0.302788
vn -0.759181 0.650448 -0.023698
vn -0.864428 0.363940 -0.346859
vn -0.852406 0.390785 -0.347405
vn -0.759483 0.552212 -0.343872
vn -0.760234 0.307145 -0.572456
vn -0.761098 0.027792 0.648041
vn -0.761245 -0.019728 -0.648165
vn -0.761244 -0.019728 -0.648165
vn -0.809018 0.000000 -0.587783
vn -1.000000 -0.000001 0.000000
vn -0.809015 0.000000 0.587788
vn -0.309019 0.000000 0.951056
vn 0.809019 -0.000002 0.587783
vn 1.000000 0.000001 0.000000
vn 0.809018 0.000001 -0.587783
vn 0.309016 0.000000 -0.951057
vn -0.309016 0.000000 -0.951057
vn -0.309017 0.000000 0.951056
vn 0.000000 -1.000000 0.000009
vn -0.794073 0.191316 -0.576928
vn -0.981529 0.191315 0.000000
vn -0.794072 0.191323 0.576928
vn -0.303307 0.191319 0.933489
vn 0.303308 0.191317 0.933489
vn 0.794072 0.191320 0.576928
vn 0.981529 0.191314 0.000000
vn 0.303307 0.191318 -0.933489
vn -0.303308 0.191319 -0.933489
vn -0.685408 0.531256 -0.497979
vn -0.847211 0.531257 0.000000
vn -0.685410 0.531255 0.497978
vn -0.261802 0.531254 0.805748
vn 0.261803 0.531257 0.805745
vn 0.847212 0.531256 0.000000
vn 0.847211 0.531256 0.000000
vn 0.685409 0.531255 -0.497978
vn 0.261802 0.531254 -0.805747
vn 0.261802 0.531255 -0.805747
vn -0.261803 0.531256 -0.805746
vn -0.510182 0.776091 -0.370671
vn -0.630621 0.776091 0.000000
vn -0.510182 0.776091 0.370671
vn 0.510185 0.776088 0.370673
vn 0.630623 0.776090 0.000000
vn 0.510182 0.776091 -0.370671
vn -0.309475 0.923942 -0.224849
vn -0.382535 0.923941 0.000000
vn 0.382534 0.923942 0.000000
vn 0.309476 0.923944 -0.224837
vn 0.062996 -0.998014 0.000000
vn -0.062995 -0.998014 0.000000
vn -0.050964 -0.998014 0.037023
vn -0.309018 0.000000 -0.951056
vn 0.809018 -0.000003 -0.587784
vn 0.809018 -0.000001 0.587784
vn -0.309019 0.000001 0.951056
vn -0.809017 0.000001 -0.587786
vn 0.000001 -1.000000 -0.000001
vn -0.000001 1.000000 -0.000001
vn -0.000001 1.000000 0.000001
vn -0.000002 1.000000 0.000001
vn 0.000000 1.000000 -0.000001
vn 0.000002 -1.000000 -0.000001
vn 0.000000 -1.000000 -0.000001
vn 0.265287 -0.154777 -0.951665
vn 0.278995 -0.117199 -0.953114
vn 0.180763 -0.109390 -0.977424
vn 0.178292 -0.104306 -0.978434
vn 0.301594 -0.127705 0.944845
vn 0.288315 -0.166593 0.942932
vn 0.189888 -0.144283 0.971146
vn 0.186313 -0.137916 0.972762
vn -0.809019 0.000000 0.587783
vn -1.000000 0.000000 0.000003
vn -0.809016 0.000000 -0.587786
vn 0.189984 0.144104 -0.971154
vn 0.186791 0.138458 -0.972594
vn 0.300320 0.132426 -0.944601
vn 0.286089 0.175058 -0.942076
vn 0.181197 0.109937 0.977283
vn 0.178317 0.104059 0.978455
vn 0.263728 0.161860 0.950920
vn 0.278108 0.121981 0.952773
vn -0.809016 0.000000 0.587786
vn 0.932383 -0.248826 -0.262198
vn 0.862235 -0.370602 -0.345260
vn 0.762856 -0.546586 -0.345392
vn 0.762106 -0.299802 -0.573858
vn 0.763170 -0.645758 -0.023830
vn 0.873411 -0.371808 0.314502
vn 0.945540 -0.237101 0.223017
vn 0.762936 -0.570437 0.304188
vn 0.762232 -0.341073 0.550157
vn 0.762231 -0.341073 0.550157
vn 0.760112 0.348191 -0.548627
vn 0.760112 0.348192 -0.548627
vn 0.863493 0.392827 -0.316335
vn 0.940091 0.250584 -0.231162
vn 0.759408 0.575863 -0.302789
vn 0.759181 0.650448 0.023698
vn 0.864426 0.363945 0.346859
vn 0.852404 0.390790 0.347405
vn 0.759483 0.552212 0.343872
vn 0.760234 0.307145 0.572456
vn 0.761098 0.027792 -0.648041
vn 0.761244 -0.019728 0.648165
vn 0.000000 0.866031 0.499990
vn 0.000000 0.866031 0.499990
vn 0.000000 0.500024 0.866012
vn 0.000000 -0.500001 0.866025
vn 0.000000 -0.866034 0.499985
vn 0.000000 0.866031 -0.499990
vn 0.000000 0.866031 -0.499990
vn 0.000000 0.500024 -0.866012
vn 0.000000 0.000000 -1.000000
vn 0.000000 -0.500001 -0.866025
vn -0.000000 -0.866034 -0.499985
vn -0.809017 0.000000 -0.587786
vn -1.000000 0.000000 0.000002
vn -0.809017 0.000000 0.587785
vn -0.309018 0.000000 0.951056
vn 0.340389 0.035598 0.939611
vn 0.309122 0.000172 0.951022
vn 0.309134 0.000191 0.951019
vn 0.343653 0.037946 0.938330
vn 0.878940 -0.101941 0.465910
vn 0.809239 -0.000153 0.587479
vn 0.809314 -0.000205 0.587376
vn 0.968226 -0.067795 0.240713
vn 1.000000 0.000125 0.000002
vn 1.000000 0.000134 0.000002
vn 0.964232 -0.074763 -0.254296
vn 0.809257 -0.000365 -0.587455
vn 0.809210 -0.000294 -0.587520
vn 0.871298 -0.128558 -0.473616
vn 0.319737 0.011794 -0.947433
vn 0.309051 0.000056 -0.951045
vn 0.309048 0.000051 -0.951046
vn 0.318785 0.011087 -0.947762
vn 0.809017 0.000000 -0.587785
vn 0.809017 0.000000 0.587785
vn -0.809016 0.000000 -0.587787
vn -0.809014 0.000000 -0.587790
vn -0.809017 0.000000 0.587786
vn 0.311400 -0.004710 0.950267
vn 0.319655 -0.013973 0.947431
vn 0.320760 -0.014931 0.947043
vn 0.311522 -0.004953 0.950226
vn 0.825335 0.024303 0.564120
vn 0.869589 0.135227 0.474899
vn 0.877623 0.167899 0.448985
vn 0.827224 0.027229 0.561213
vn 0.999781 -0.020906 -0.000313
vn 0.998571 -0.053438 -0.001090
vn 0.967180 0.066066 -0.245353
vn 0.999799 -0.020032 -0.000300
vn 0.831660 0.010813 -0.555179
vn 0.877867 0.103416 -0.467606
vn 0.828498 0.009263 -0.559915
vn 0.317012 -0.015716 -0.948291
vn 0.344810 -0.045406 -0.937574
vn 0.341227 -0.042370 -0.939025
vn 0.316623 -0.014947 -0.948434
vn -0.809021 0.000000 -0.587780
vn -0.809021 0.000000 0.587780
vn 0.809013 0.000000 0.587791
vn 0.309015 0.000000 -0.951057
vn -0.309015 0.000000 -0.951057
vn 0.996483 -0.083758 -0.002266
vn 1.000000 0.000000 -0.000002
vn 0.809017 0.000000 -0.587786
vn 0.309018 0.000000 -0.951056
vn -0.340645 0.037073 -0.939461
vn -0.309090 0.000143 -0.951033
vn -0.309099 0.000160 -0.951030
vn -0.343805 0.039254 -0.938220
vn -0.878086 -0.108365 -0.466071
vn -0.809173 -0.000120 -0.587571
vn -0.809224 -0.000159 -0.587500
vn -0.966908 -0.071992 -0.244758
vn -1.000000 0.000105 -0.000001
vn -1.000000 0.000113 -0.000001
vn -0.963449 -0.078805 0.256039
vn -0.809184 -0.000300 0.587556
vn -0.809152 -0.000244 0.587599
vn -0.870657 -0.135786 0.472777
vn -0.319794 0.012183 0.947409
vn -0.309041 0.000047 0.951049
vn -0.309039 0.000042 0.951049
vn -0.318874 0.011530 0.947727
vn 0.809016 0.000000 0.587787
vn 0.809014 0.000000 0.587790
vn 0.809019 0.000000 -0.587783
vn -0.311400 -0.004710 -0.950267
vn -0.319655 -0.013973 -0.947431
vn -0.320760 -0.014931 -0.947043
vn -0.311522 -0.004953 -0.950226
vn -0.825335 0.024306 -0.564120
vn -0.869589 0.135229 -0.474899
vn -0.877623 0.167898 -0.448985
vn -0.827224 0.027233 -0.561213
vn -0.999781 -0.020906 0.000313
vn -0.998571 -0.053434 0.001090
vn -0.967180 0.066068 0.245353
vn -0.999799 -0.020032 0.000300
vn -0.831660 0.010813 0.555179
vn -0.877867 0.103416 0.467606
vn -0.828498 0.009263 0.559915
vn -0.317012 -0.015716 0.948291
vn -0.344810 -0.045406 0.937574
vn -0.341227 -0.042370 0.939025
vn -0.316623 -0.014947 0.948434
vn 0.809021 0.000000 0.587780
vn 0.809021 0.000000 -0.587780
vn -0.809013 0.000000 -0.587791
vn -0.309015 0.000000 0.951057
vn 0.309015 0.000000 0.951057
vn -0.809017 -0.000000 -0.587785
vn -0.996485 -0.083744 0.002266

# Mesh
g polySurface2
usemtl initialShadingGroup
f 4/4/1 1/1/1 2/2/1
f 2/2/1 3/3/1 4/4/1
f 3/3/1 2/2/1 5/5/1
f 5/5/1 6/6/1 3/3/1
f 8/8/1 4/4/1 3/3/1
f 3/3/1 7/7/1 8/8/1
f 7/7/1 3/3/1 6/6/1
f 6/6/1 9/9/1 7/7/1
f 13/13/2 10/10/2 11/11/2
f 11/11/2 12/12/2 13/13/2
f 12/12/3 11/11/3 14/14/3
f 14/14/3 15/15/3 12/12/3
f 15/15/4 14/14/4 16/16/4
f 16/16/4 17/17/4 15/15/4
f 17/17/5 16/16/5 18/18/5
f 18/18/5 19/19/5 17/17/5
f 19/19/6 18/18/6 20/20/6
f 20/20/6 21/21/6 19/19/6
f 21/21/7 20/20/7 22/22/7
f 22/22/7 23/23/7 21/21/7
f 23/23/8 22/22/8 24/24/8
f 24/24/8 25/25/8 23/23/8
f 25/29/9 24/26/9 26/27/9
f 26/27/9 27/28/9 25/29/9
f 27/28/10 26/27/10 28/30/10
f 28/30/10 29/31/10 27/28/10
f 29/31/11 28/30/11 10/10/11
f 10/10/11 13/13/11 29/31/11
f 33/35/12 30/32/12 31/33/12
f 31/33/12 32/34/12 33/35/12
f 32/34/13 31/33/13 34/36/13
f 34/36/13 35/37/13 32/34/13
f 35/37/14 34/36/14 36/38/14
f 36/38/14 37/39/14 35/37/14
f 37/39/15 36/38/15 38/40/15
f 38/40/15 39/41/15 37/39/15
f 39/41/16 38/40/16 40/42/16
f 40/42/16 41/43/16 39/41/16
f 41/43/17 40/42/17 42/44/17
f 42/44/17 43/45/17 41/43/17
f 43/45/18 42/44/18 44/46/18
f 44/46/18 45/47/18 43/45/18
f 45/47/19 44/46/19 46/48/19
f 46/48/19 47/49/19 45/47/19
f 47/49/20 46/48/20 48/50/20
f 48/50/20 49/51/20 47/49/20
f 49/51/21 48/50/21 30/32/21
f 30/32/21 33/35/21 49/51/21
f 30/32/22 50/52/22 51/53/22
f 51/53/22 31/33/22 30/32/22
f 31/33/23 51/53/23 52/54/23
f 52/54/23 34/36/23 31/33/23
f 34/36/24 52/54/24 53/55/24
f 53/55/24 36/38/24 34/36/24
f 36/38/22 53/55/22 54/56/22
f 54/56/22 38/40/22 36/38/22
f 38/40/24 54/56/24 55/57/24
f 55/57/24 40/42/24 38/40/24
f 40/42/25 55/57/25 56/58/25
f 56/58/25 42/44/25 40/42/25
f 42/44/24 56/58/24 57/59/24
f 57/59/24 44/46/24 42/44/24
f 44/46/24 57/59/24 58/60/24
f 58/60/24 46/48/24 44/46/24
f 46/48/25 58/60/25 59/61/25
f 59/61/25 48/50/25 46/48/25
f 48/50/24 59/61/24 50/52/24
f 50/52/24 30/32/24 48/50/24
f 63/65/26 60/62/26 61/63/26
f 61/63/26 62/64/26 63/65/26
f 62/64/27 61/63/27 64/66/27
f 64/66/27 65/67/27 62/64/27
f 65/67/28 64/66/28 66/68/28
f 66/68/28 67/69/28 65/67/28
f 67/69/29 66/68/29 68/70/29
f 68/70/29 69/71/29 67/69/29
f 69/71/30 68/70/30 70/72/30
f 70/72/30 71/73/30 69/71/30
f 71/73/31 70/72/31 72/74/31
f 72/74/31 73/75/31 71/73/31
f 73/75/32 72/74/32 74/76/32
f 74/76/32 75/77/32 73/75/32
f 75/77/33 74/76/33 76/78/33
f 76/78/33 77/79/33 75/77/33
f 77/79/34 76/78/34 78/80/34
f 78/80/34 79/81/34 77/79/34
f 79/81/36 78/80/35 60/62/36
f 60/62/36 63/65/36 79/81/36
f 81/83/37 63/65/37 62/64/37
f 62/64/37 80/82/37 81/83/37
f 80/82/38 62/64/38 65/67/38
f 65/67/38 82/84/38 80/82/38
f 82/84/39 65/67/39 67/69/39
f 67/69/39 83/85/39 82/84/39
f 83/85/40 67/69/40 69/71/40
f 69/71/40 84/86/40 83/85/40
f 84/86/41 69/71/41 71/73/41
f 71/73/41 85/87/41 84/86/41
f 85/87/42 71/73/42 73/75/42
f 73/75/42 86/88/42 85/87/42
f 86/88/44 73/75/43 75/77/43
f 75/77/43 87/89/43 86/88/44
f 87/89/45 75/77/45 77/79/45
f 77/79/45 88/90/45 87/89/45
f 88/90/46 77/79/46 79/81/46
f 79/81/46 89/91/46 88/90/46
f 89/91/47 79/81/47 63/65/47
f 63/65/47 81/83/47 89/91/47
f 91/93/48 81/83/48 80/82/48
f 80/82/48 90/92/48 91/93/48
f 90/92/49 80/82/49 82/84/49
f 82/84/49 92/94/49 90/92/49
f 92/94/50 82/84/50 83/85/50
f 83/85/50 93/95/50 92/94/50
f 93/95/51 83/85/51 84/86/51
f 84/86/51 94/96/51 93/95/51
f 94/96/53 84/86/52 85/87/52
f 85/87/52 95/97/52 94/96/53
f 95/97/54 85/87/54 86/88/54
f 86/88/54 96/98/54 95/97/54
f 96/98/55 86/88/55 87/89/55
f 87/89/55 97/99/55 96/98/55
f 97/99/56 87/89/56 88/90/56
f 88/90/56 98/100/56 97/99/56
f 98/100/57 88/90/57 89/91/58
f 89/91/58 99/101/58 98/100/57
f 99/101/59 89/91/59 81/83/59
f 81/83/59 91/93/59 99/101/59
f 101/103/60 91/93/60 90/92/60
f 90/92/60 100/102/60 101/103/60
f 100/102/61 90/92/61 92/94/61
f 92/94/61 102/104/61 100/102/61
f 102/104/62 92/94/62 93/95/62
f 93/95/62 103/105/62 102/104/62
f 103/105/63 93/95/63 94/96/63
f 94/96/63 104/106/63 103/105/63
f 104/106/64 94/96/64 95/97/64
f 95/97/64 105/107/64 104/106/64
f 105/107/66 95/97/65 96/98/65
f 96/98/65 106/108/66 105/107/66
f 106/108/67 96/98/67 97/99/67
f 97/99/67 107/109/67 106/108/67
f 107/109/68 97/99/68 98/100/68
f 98/100/68 108/110/68 107/109/68
f 108/110/69 98/100/69 99/101/69
f 99/101/69 109/111/69 108/110/69
f 109/111/70 99/101/70 91/93/70
f 91/93/70 101/103/70 109/111/70
f 68/115/71 39/112/71 41/113/71
f 41/113/71 70/114/71 68/115/71
f 70/114/72 41/113/72 43/116/72
f 43/116/72 72/117/72 70/114/72
f 72/117/73 43/116/73 45/118/73
f 45/118/73 74/119/73 72/117/73
f 74/119/74 45/118/74 47/120/74
f 47/120/74 76/121/74 74/119/74
f 76/121/75 47/120/75 49/122/75
f 49/122/75 78/123/75 76/121/75
f 78/123/76 49/122/76 33/124/76
f 33/124/76 60/125/76 78/123/76
f 60/125/77 33/124/77 32/126/77
f 32/126/77 61/127/77 60/125/77
f 61/127/78 32/126/78 35/128/78
f 35/128/78 64/129/78 61/127/78
f 66/131/79 37/130/79 39/112/79
f 39/112/79 68/115/79 66/131/79
f 64/129/80 35/128/80 37/130/80
f 37/130/80 66/131/80 64/129/80
f 106/108/81 107/109/81 108/110/81
f 108/110/81 105/107/81 106/108/81
f 105/107/81 108/110/81 109/111/81
f 109/111/81 104/106/81 105/107/81
f 104/106/81 109/111/81 101/103/81
f 101/103/81 103/105/81 104/106/81
f 103/105/81 101/103/81 100/102/81
f 100/102/81 102/104/81 103/105/81
f 113/135/82 110/132/82 111/133/82
f 111/133/82 112/134/82 113/135/82
f 115/137/20 114/136/20 110/132/20
f 110/132/20 113/135/20 115/137/20
f 117/139/83 116/138/83 114/136/83
f 114/136/83 115/137/83 117/139/83
f 119/143/18 118/140/18 116/141/18
f 116/141/18 117/142/18 119/143/18
f 121/145/84 120/144/84 118/140/84
f 118/140/84 119/143/84 121/145/84
f 123/147/6 122/146/6 120/144/6
f 120/144/6 121/145/6 123/147/6
f 125/149/85 124/148/85 122/146/85
f 122/146/85 123/147/85 125/149/85
f 127/151/4 126/150/4 124/148/4
f 124/148/4 125/149/4 127/151/4
f 129/153/13 128/152/13 126/150/13
f 126/150/13 127/151/13 129/153/13
f 112/134/86 111/133/86 128/152/86
f 128/152/86 129/153/86 112/134/86
f 133/157/24 130/154/24 131/155/24
f 131/155/24 132/156/24 133/157/24
f 132/156/24 131/155/24 134/158/24
f 134/158/24 135/159/24 132/156/24
f 135/159/24 134/158/24 136/160/24
f 136/160/24 137/161/24 135/159/24
f 137/161/24 136/160/24 138/162/24
f 138/162/24 139/163/24 137/161/24
f 139/163/24 138/162/24 140/164/24
f 140/164/24 141/165/24 139/163/24
f 141/165/24 140/164/24 142/166/24
f 142/166/24 143/167/87 141/165/24
f 143/167/87 142/166/24 144/168/24
f 144/168/24 145/169/88 143/167/87
f 145/169/88 144/168/24 146/170/24
f 146/170/24 147/171/88 145/169/88
f 147/171/88 146/170/24 148/172/24
f 148/172/24 149/173/24 147/171/88
f 149/173/24 148/172/24 130/154/24
f 130/154/24 133/157/24 149/173/24
f 112/134/89 150/174/89 151/175/81
f 151/175/81 113/135/81 112/134/89
f 113/135/81 151/175/81 152/176/90
f 152/176/90 115/137/90 113/135/81
f 115/137/90 152/176/90 153/177/91
f 153/177/91 117/139/91 115/137/90
f 117/142/91 153/178/91 154/179/92
f 154/179/92 119/143/92 117/142/91
f 119/143/92 154/179/92 155/180/81
f 155/180/81 121/145/81 119/143/92
f 121/145/81 155/180/81 156/181/93
f 156/181/93 123/147/93 121/145/81
f 123/147/93 156/181/93 157/182/93
f 157/182/93 125/149/93 123/147/93
f 125/149/93 157/182/93 158/183/81
f 158/183/81 127/151/81 125/149/93
f 127/151/81 158/183/81 159/184/92
f 159/184/92 129/153/92 127/151/81
f 129/153/92 159/184/92 150/174/89
f 150/174/89 112/134/89 129/153/92
f 10/186/24 133/157/24 132/156/24
f 132/156/24 11/185/24 10/186/24
f 12/12/81 128/187/81 111/188/81
f 111/188/81 13/13/81 12/12/81
f 11/185/24 132/156/24 135/159/24
f 135/159/24 14/189/94 11/185/24
f 15/15/95 126/190/95 128/187/81
f 128/187/81 12/12/81 15/15/95
f 14/189/94 135/159/24 137/161/24
f 137/161/24 16/191/24 14/189/94
f 17/17/81 124/192/81 126/190/95
f 126/190/95 15/15/95 17/17/81
f 16/191/24 137/161/24 139/163/24
f 139/163/24 18/193/24 16/191/24
f 19/19/81 122/194/81 124/192/81
f 124/192/81 17/17/81 19/19/81
f 18/193/24 139/163/24 141/165/24
f 141/165/24 20/195/24 18/193/24
f 21/21/81 120/196/81 122/194/81
f 122/194/81 19/19/81 21/21/81
f 20/195/24 141/165/24 143/167/87
f 143/167/87 22/197/87 20/195/24
f 23/23/92 118/198/92 120/196/81
f 120/196/81 21/21/81 23/23/92
f 22/197/87 143/167/87 145/169/88
f 145/169/88 24/199/96 22/197/87
f 25/25/91 116/200/91 118/198/92
f 118/198/92 23/23/92 25/25/91
f 24/199/96 145/169/88 147/171/88
f 147/171/88 26/201/96 24/199/96
f 27/28/91 114/202/91 116/203/91
f 116/203/91 25/29/91 27/28/91
f 26/201/96 147/171/88 149/173/24
f 149/173/24 28/204/97 26/201/96
f 29/31/90 110/205/90 114/202/91
f 114/202/91 27/28/91 29/31/90
f 28/204/97 149/173/24 133/157/24
f 133/157/24 10/186/24 28/204/97
f 13/13/81 111/188/81 110/205/90
f 110/205/90 29/31/90 13/13/81
f 134/158/24 131/155/24 130/154/24
f 130/154/24 136/160/24 134/158/24
f 136/160/24 130/154/24 148/172/24
f 148/172/24 138/162/24 136/160/24
f 138/162/24 148/172/24 146/170/24
f 146/170/24 140/164/24 138/162/24
f 140/164/24 146/170/24 144/168/24
f 144/168/24 142/166/24 140/164/24
f 163/209/11 160/206/21 161/207/21
f 161/207/21 162/208/11 163/209/11
f 165/211/101 164/210/98 160/206/99
f 160/206/99 163/209/100 165/211/101
f 169/215/105 166/212/102 167/213/103
f 167/213/103 168/214/104 169/215/105
f 171/217/106 170/216/106 166/212/106
f 166/212/106 169/215/106 171/217/106
f 173/219/14 172/218/107 170/216/107
f 170/216/107 171/217/14 173/219/14
f 175/221/108 174/220/108 172/218/108
f 172/218/108 173/219/108 175/221/108
f 162/208/109 161/207/109 174/220/109
f 174/220/109 175/221/109 162/208/109
f 179/225/110 176/222/11 177/223/11
f 177/223/11 178/224/110 179/225/110
f 181/227/114 180/226/111 176/222/112
f 176/222/112 179/225/113 181/227/114
f 185/231/118 182/228/115 183/229/116
f 183/229/116 184/230/117 185/231/118
f 187/233/15 186/232/106 182/228/106
f 182/228/106 185/231/15 187/233/15
f 189/235/119 188/234/119 186/232/119
f 186/232/119 187/233/119 189/235/119
f 191/237/108 190/236/108 188/234/108
f 188/234/108 189/235/108 191/237/108
f 178/224/109 177/223/109 190/236/109
f 190/236/109 191/237/109 178/224/109
f 176/222/11 163/209/11 162/208/11
f 162/208/11 177/223/11 176/222/11
f 180/226/111 165/211/101 163/209/100
f 163/209/100 176/222/112 180/226/111
f 182/228/115 169/215/105 168/214/104
f 168/214/104 183/229/116 182/228/115
f 186/232/106 171/217/106 169/215/106
f 169/215/106 182/228/106 186/232/106
f 188/234/119 173/219/14 171/217/14
f 171/217/14 186/232/119 188/234/119
f 190/236/108 175/221/108 173/219/108
f 173/219/108 188/234/108 190/236/108
f 177/223/109 162/208/109 175/221/109
f 175/221/109 190/236/109 177/223/109
f 194/240/122 192/238/120 164/210/121
f 164/210/121 193/239/122 194/240/122
f 193/239/123 164/210/123 165/211/123
f 165/211/123 195/241/124 193/239/123
f 197/245/125 196/242/125 192/243/125
f 192/243/125 194/244/125 197/245/125
f 198/246/128 167/213/126 196/242/127
f 196/242/127 197/245/128 198/246/128
f 199/247/129 168/214/129 167/213/129
f 167/213/129 198/246/129 199/247/129
f 201/249/130 180/226/130 181/227/130
f 181/227/130 200/248/130 201/249/130
f 200/248/134 181/227/131 202/250/132
f 202/250/132 203/251/133 200/248/134
f 203/251/135 202/250/135 204/252/135
f 204/252/135 205/253/135 203/251/135
f 205/253/138 204/252/136 184/230/137
f 184/230/137 206/254/138 205/253/138
f 206/254/139 184/230/139 183/229/139
f 183/229/139 207/255/139 206/254/139
f 195/241/140 165/211/140 180/226/140
f 180/226/140 201/249/140 195/241/140
f 207/255/142 183/229/141 168/214/141
f 168/214/141 199/247/142 207/255/142
f 211/259/143 208/256/143 209/257/143
f 209/257/143 210/258/143 211/259/143
f 210/258/144 209/257/144 212/260/144
f 212/260/144 213/261/144 210/258/144
f 213/261/145 212/260/145 214/262/145
f 214/262/145 215/263/145 213/261/145
f 215/263/146 214/262/146 216/264/146
f 216/264/146 217/265/146 215/263/146
f 217/265/21 216/264/21 218/266/21
f 218/266/21 219/267/21 217/265/21
f 219/267/147 218/266/147 220/268/147
f 220/268/147 221/269/147 219/267/147
f 221/273/148 220/270/148 222/271/148
f 222/271/148 223/272/148 221/273/148
f 223/272/149 222/271/149 224/274/149
f 224/274/149 225/275/149 223/272/149
f 225/275/150 224/274/150 226/276/150
f 226/276/150 227/277/150 225/275/150
f 227/277/151 226/276/151 208/256/151
f 208/256/151 211/259/151 227/277/151
f 231/281/17 228/278/17 229/279/17
f 229/279/17 230/280/17 231/281/17
f 230/280/18 229/279/18 232/282/18
f 232/282/18 233/283/18 230/280/18
f 233/283/19 232/282/19 234/284/19
f 234/284/19 235/285/19 233/283/19
f 235/285/152 234/284/152 236/286/152
f 236/286/152 237/287/152 235/285/152
f 237/287/110 236/286/110 238/288/110
f 238/288/110 239/289/110 237/287/110
f 239/289/12 238/288/12 240/290/12
f 240/290/12 241/291/12 239/289/12
f 241/291/13 240/290/13 242/292/13
f 242/292/13 243/293/13 241/291/13
f 243/293/14 242/292/14 244/294/14
f 244/294/14 245/295/14 243/293/14
f 245/295/106 244/294/106 246/296/106
f 246/296/106 247/297/106 245/295/106
f 247/297/6 246/296/6 228/278/6
f 228/278/6 231/281/6 247/297/6
f 228/278/25 248/298/25 249/299/25
f 249/299/25 229/279/25 228/278/25
f 229/279/153 249/299/153 250/300/153
f 250/300/153 232/282/153 229/279/153
f 232/282/24 250/300/24 251/301/24
f 251/301/24 234/284/24 232/282/24
f 234/284/25 251/301/25 252/302/25
f 252/302/25 236/286/25 234/284/25
f 236/286/24 252/302/24 253/303/24
f 253/303/24 238/288/24 236/286/24
f 238/288/22 253/303/22 254/304/22
f 254/304/22 240/290/22 238/288/22
f 240/290/24 254/304/24 255/305/24
f 255/305/24 242/292/24 240/290/24
f 242/292/24 255/305/24 256/306/24
f 256/306/24 244/294/24 242/292/24
f 244/294/22 256/306/22 257/307/22
f 257/307/22 246/296/22 244/294/22
f 246/296/24 257/307/24 248/298/24
f 248/298/24 228/278/24 246/296/24
f 261/311/154 258/308/154 259/309/154
f 259/309/154 260/310/154 261/311/154
f 260/310/155 259/309/155 262/312/155
f 262/312/155 263/313/155 260/310/155
f 263/313/156 262/312/156 264/314/156
f 264/314/156 265/315/156 263/313/156
f 265/315/157 264/314/157 266/316/157
f 266/316/157 267/317/157 265/315/157
f 267/317/158 266/316/158 268/318/158
f 268/318/158 269/319/158 267/317/158
f 269/319/159 268/318/159 270/320/159
f 270/320/159 271/321/159 269/319/159
f 271/321/160 270/320/160 272/322/160
f 272/322/160 273/323/160 271/321/160
f 273/323/28 272/322/28 274/324/28
f 274/324/28 275/325/28 273/323/28
f 275/325/161 274/324/161 276/326/161
f 276/326/161 277/327/161 275/325/161
f 277/327/162 276/326/162 258/308/162
f 258/308/162 261/311/162 277/327/162
f 279/329/163 261/311/163 260/310/163
f 260/310/163 278/328/163 279/329/163
f 278/328/164 260/310/164 263/313/164
f 263/313/164 280/330/164 278/328/164
f 280/330/165 263/313/165 265/315/165
f 265/315/165 281/331/165 280/330/165
f 281/331/166 265/315/166 267/317/166
f 267/317/166 282/332/166 281/331/166
f 282/332/167 267/317/167 269/319/167
f 269/319/167 283/333/167 282/332/167
f 283/333/37 269/319/37 271/321/37
f 271/321/37 284/334/37 283/333/37
f 284/334/168 271/321/168 273/323/168
f 273/323/168 285/335/169 284/334/168
f 285/335/170 273/323/170 275/325/170
f 275/325/170 286/336/170 285/335/170
f 286/336/171 275/325/171 277/327/172
f 277/327/172 287/337/172 286/336/171
f 287/337/173 277/327/173 261/311/173
f 261/311/173 279/329/173 287/337/173
f 289/339/174 279/329/174 278/328/174
f 278/328/174 288/338/174 289/339/174
f 288/338/175 278/328/175 280/330/175
f 280/330/175 290/340/175 288/338/175
f 290/340/176 280/330/176 281/331/176
f 281/331/176 291/341/176 290/340/176
f 291/341/57 281/331/57 282/332/58
f 282/332/58 292/342/58 291/341/57
f 292/342/59 282/332/59 283/333/59
f 283/333/59 293/343/59 292/342/59
f 293/343/177 283/333/177 284/334/177
f 284/334/177 294/344/177 293/343/177
f 294/344/178 284/334/178 285/335/178
f 285/335/178 295/345/178 294/344/178
f 295/345/179 285/335/179 286/336/179
f 286/336/179 296/346/179 295/345/179
f 296/346/51 286/336/51 287/337/51
f 287/337/51 297/347/51 296/346/51
f 297/347/52 287/337/52 279/329/52
f 279/329/52 289/339/52 297/347/52
f 299/349/180 289/339/180 288/338/180
f 288/338/180 298/348/180 299/349/180
f 298/348/181 288/338/181 290/340/181
f 290/340/181 300/350/181 298/348/181
f 300/350/68 290/340/68 291/341/68
f 291/341/68 301/351/68 300/350/68
f 301/351/69 291/341/69 292/342/69
f 292/342/69 302/352/69 301/351/69
f 302/352/70 292/342/70 293/343/70
f 293/343/70 303/353/70 302/352/70
f 303/353/60 293/343/60 294/344/60
f 294/344/60 304/354/60 303/353/60
f 304/354/182 294/344/182 295/345/182
f 295/345/182 305/355/182 304/354/182
f 305/355/183 295/345/183 296/346/183
f 296/346/183 306/356/183 305/355/183
f 306/356/63 296/346/63 297/347/63
f 297/347/63 307/357/63 306/356/63
f 307/357/64 297/347/64 289/339/64
f 289/339/64 299/349/64 307/357/64
f 266/361/76 237/358/76 239/359/76
f 239/359/76 268/360/76 266/361/76
f 268/360/77 239/359/77 241/362/77
f 241/362/77 270/363/77 268/360/77
f 270/363/184 241/362/184 243/364/184
f 243/364/184 272/365/184 270/363/184
f 272/365/80 243/364/80 245/366/80
f 245/366/80 274/367/80 272/365/80
f 274/367/79 245/366/79 247/368/79
f 247/368/79 276/369/79 274/367/79
f 276/369/71 247/368/71 231/370/71
f 231/370/71 258/371/71 276/369/71
f 258/371/72 231/370/72 230/372/72
f 230/372/72 259/373/72 258/371/72
f 259/373/185 230/372/185 233/374/185
f 233/374/185 262/375/185 259/373/185
f 264/377/75 235/376/75 237/358/75
f 237/358/75 266/361/75 264/377/75
f 262/375/186 233/374/186 235/376/186
f 235/376/186 264/377/186 262/375/186
f 304/354/81 305/355/81 306/356/81
f 306/356/81 303/353/81 304/354/81
f 303/353/81 306/356/81 307/357/81
f 307/357/81 302/352/81 303/353/81
f 302/352/81 307/357/81 299/349/81
f 299/349/81 301/351/81 302/352/81
f 301/351/81 299/349/81 298/348/81
f 298/348/81 300/350/81 301/351/81
f 311/381/187 308/378/187 309/379/187
f 309/379/187 310/380/187 311/381/187
f 313/383/106 312/382/106 308/378/106
f 308/378/106 311/381/106 313/383/106
f 315/385/188 314/384/188 312/382/188
f 312/382/188 313/383/188 315/385/188
f 317/387/13 316/386/13 314/384/13
f 314/384/13 315/385/13 317/387/13
f 319/391/189 318/388/189 316/389/189
f 316/389/189 317/390/189 319/391/189
f 321/393/21 320/392/21 318/388/21
f 318/388/21 319/391/21 321/393/21
f 323/395/190 322/394/190 320/392/190
f 320/392/190 321/393/190 323/395/190
f 325/397/145 324/396/145 322/394/145
f 322/394/145 323/395/145 325/397/145
f 327/399/18 326/398/18 324/396/18
f 324/396/18 325/397/18 327/399/18
f 310/380/191 309/379/191 326/398/191
f 326/398/191 327/399/191 310/380/191
f 331/403/24 328/400/24 329/401/24
f 329/401/24 330/402/24 331/403/24
f 330/402/24 329/401/24 332/404/24
f 332/404/24 333/405/24 330/402/24
f 333/405/24 332/404/24 334/406/24
f 334/406/24 335/407/24 333/405/24
f 335/407/24 334/406/24 336/408/24
f 336/408/24 337/409/24 335/407/24
f 337/409/24 336/408/24 338/410/24
f 338/410/24 339/411/24 337/409/24
f 339/411/24 338/410/24 340/412/24
f 340/412/24 341/413/94 339/411/24
f 341/413/94 340/412/24 342/414/24
f 342/414/24 343/415/192 341/413/94
f 343/415/192 342/414/24 344/416/24
f 344/416/24 345/417/192 343/415/192
f 345/417/192 344/416/24 346/418/24
f 346/418/24 347/419/24 345/417/192
f 347/419/24 346/418/24 328/400/24
f 328/400/24 331/403/24 347/419/24
f 310/380/193 348/420/193 349/421/81
f 349/421/81 311/381/81 310/380/193
f 311/381/81 349/421/81 350/422/194
f 350/422/194 313/383/194 311/381/81
f 313/383/194 350/422/194 351/423/195
f 351/423/195 315/385/195 313/383/194
f 315/385/195 351/423/195 352/424/95
f 352/424/95 317/387/95 315/385/195
f 317/390/95 352/425/95 353/426/81
f 353/426/81 319/391/81 317/390/95
f 319/391/81 353/426/81 354/427/196
f 354/427/196 321/393/196 319/391/81
f 321/393/196 354/427/196 355/428/196
f 355/428/196 323/395/196 321/393/196
f 323/395/196 355/428/196 356/429/81
f 356/429/81 325/397/81 323/395/196
f 325/397/81 356/429/81 357/430/95
f 357/430/95 327/399/95 325/397/81
f 327/399/95 357/430/95 348/420/193
f 348/420/193 310/380/193 327/399/95
f 208/432/24 331/403/24 330/402/24
f 330/402/24 209/431/24 208/432/24
f 210/258/81 326/433/81 309/434/81
f 309/434/81 211/259/81 210/258/81
f 209/431/24 330/402/24 333/405/24
f 333/405/24 212/435/87 209/431/24
f 213/261/92 324/436/92 326/433/81
f 326/433/81 210/258/81 213/261/92
f 212/435/87 333/405/24 335/407/24
f 335/407/24 214/437/24 212/435/87
f 215/263/81 322/438/81 324/436/92
f 324/436/92 213/261/92 215/263/81
f 214/437/24 335/407/24 337/409/24
f 337/409/24 216/439/24 214/437/24
f 217/265/81 320/440/81 322/438/81
f 322/438/81 215/263/81 217/265/81
f 216/439/24 337/409/24 339/411/24
f 339/411/24 218/441/24 216/439/24
f 219/267/81 318/442/81 320/440/81
f 320/440/81 217/265/81 219/267/81
f 218/441/24 339/411/24 341/413/94
f 341/413/94 220/443/94 218/441/24
f 221/269/95 316/444/95 318/442/81
f 318/442/81 219/267/81 221/269/95
f 220/443/94 341/413/94 343/415/192
f 343/415/192 222/445/197 220/443/94
f 223/272/195 314/446/195 316/447/95
f 316/447/95 221/273/95 223/272/195
f 222/445/197 343/415/192 345/417/192
f 345/417/192 224/448/197 222/445/197
f 225/275/195 312/449/195 314/446/195
f 314/446/195 223/272/195 225/275/195
f 224/448/197 345/417/192 347/419/24
f 347/419/24 226/450/198 224/448/197
f 227/277/194 308/451/194 312/449/195
f 312/449/195 225/275/195 227/277/194
f 226/450/198 347/419/24 331/403/24
f 331/403/24 208/432/24 226/450/198
f 211/259/81 309/434/81 308/451/194
f 308/451/194 227/277/194 211/259/81
f 332/404/24 329/401/24 328/400/24
f 328/400/24 334/406/24 332/404/24
f 334/406/24 328/400/24 346/418/24
f 346/418/24 336/408/24 334/406/24
f 336/408/24 346/418/24 344/416/24
f 344/416/24 338/410/24 336/408/24
f 338/410/24 344/416/24 342/414/24
f 342/414/24 340/412/24 338/410/24
f 361/455/151 358/452/16 359/453/16
f 359/453/16 360/454/151 361/455/151
f 363/457/202 362/456/199 358/452/200
f 358/452/200 361/455/201 363/457/202
f 367/461/206 364/458/203 365/459/204
f 365/459/204 366/460/205 367/461/206
f 369/463/20 368/462/152 364/458/152
f 364/458/152 367/461/20 369/463/20
f 371/465/19 370/464/207 368/462/207
f 368/462/207 369/463/19 371/465/19
f 373/467/208 372/466/208 370/464/208
f 370/464/208 371/465/208 373/467/208
f 360/454/209 359/453/209 372/466/209
f 372/466/209 373/467/209 360/454/209
f 377/471/16 374/468/151 375/469/151
f 375/469/151 376/470/16 377/471/16
f 379/473/213 378/472/210 374/468/211
f 374/468/211 377/471/212 379/473/213
f 383/477/217 380/474/214 381/475/215
f 381/475/215 382/476/216 383/477/217
f 385/479/152 384/478/20 380/474/20
f 380/474/20 383/477/152 385/479/152
f 387/481/218 386/480/218 384/478/218
f 384/478/218 385/479/218 387/481/218
f 389/483/208 388/482/208 386/480/208
f 386/480/208 387/481/208 389/483/208
f 376/470/209 375/469/209 388/482/209
f 388/482/209 389/483/209 376/470/209
f 374/468/151 361/455/151 360/454/151
f 360/454/151 375/469/151 374/468/151
f 378/472/210 363/457/202 361/455/201
f 361/455/201 374/468/211 378/472/210
f 380/474/214 367/461/206 366/460/205
f 366/460/205 381/475/215 380/474/214
f 384/478/20 369/463/20 367/461/20
f 367/461/20 380/474/20 384/478/20
f 386/480/218 371/465/19 369/463/19
f 369/463/19 384/478/218 386/480/218
f 388/482/208 373/467/208 371/465/208
f 371/465/208 386/480/208 388/482/208
f 375/469/209 360/454/209 373/467/209
f 373/467/209 388/482/209 375/469/209
f 392/486/221 390/484/219 362/456/220
f 362/456/220 391/485/221 392/486/221
f 391/485/222 362/456/222 363/457/222
f 363/457/222 393/487/222 391/485/222
f 395/489/223 394/488/223 390/484/223
f 390/484/223 392/486/223 395/489/223
f 396/492/226 365/459/224 394/490/225
f 394/490/225 395/491/226 396/492/226
f 397/493/228 366/460/227 365/459/227
f 365/459/227 396/492/228 397/493/228
f 399/495/230 378/472/229 379/473/230
f 379/473/230 398/494/230 399/495/230
f 398/494/233 379/473/231 400/496/232
f 400/496/232 401/497/233 398/494/233
f 401/497/234 400/496/234 402/498/234
f 402/498/234 403/499/234 401/497/234
f 403/499/237 402/498/235 382/476/236
f 382/476/236 404/500/237 403/499/237
f 404/500/238 382/476/238 381/475/238
f 381/475/238 405/501/238 404/500/238
f 393/487/239 363/457/239 378/472/239
f 378/472/239 399/495/239 393/487/239
f 405/501/240 381/475/240 366/460/240
f 366/460/240 397/493/240 405/501/240
f 403/505/81 203/502/81 205/503/81
f 205/503/81 401/504/81 403/505/81
f 404/507/241 200/506/241 203/502/241
f 203/502/241 403/505/242 404/507/241
f 405/509/243 201/508/243 200/506/243
f 200/506/243 404/507/243 405/509/243
f 397/511/1 195/510/1 201/508/1
f 201/508/1 405/509/1 397/511/1
f 396/513/244 193/512/244 195/510/244
f 195/510/244 397/511/244 396/513/244
f 395/515/245 194/514/245 193/512/245
f 193/512/245 396/513/245 395/515/245
f 401/504/247 205/503/246 206/516/247
f 206/516/247 398/517/247 401/504/247
f 398/517/248 206/516/248 207/518/248
f 207/518/248 399/519/248 398/517/248
f 399/519/249 207/518/249 199/520/249
f 199/520/249 393/521/249 399/519/249
f 393/521/250 199/520/250 198/522/250
f 198/522/250 391/523/250 393/521/250
f 391/523/251 198/522/251 197/524/251
f 197/524/251 392/525/251 391/523/251
f 392/525/24 197/524/24 194/526/24
f 194/526/24 395/527/24 392/525/24
f 409/531/209 406/528/209 407/529/252
f 407/529/252 408/530/252 409/531/209
f 411/533/16 407/529/16 406/528/187
f 406/528/187 410/532/187 411/533/16
f 413/535/208 409/531/208 408/530/253
f 408/530/253 412/534/253 413/535/208
f 415/537/218 413/535/218 412/534/254
f 412/534/254 414/536/254 415/537/218
f 417/539/255 415/537/255 414/536/152
f 414/536/152 416/538/152 417/539/255
f 419/541/259 417/539/256 416/538/257
f 416/538/257 418/540/258 419/541/259
f 421/543/263 419/541/260 418/540/261
f 418/540/261 420/542/262 421/543/263
f 423/547/266 421/544/263 420/545/264
f 420/545/264 422/546/265 423/547/266
f 425/549/269 423/547/266 422/546/267
f 422/546/267 424/548/268 425/549/269
f 410/532/273 425/549/270 424/548/271
f 424/548/271 411/533/272 410/532/273
f 359/453/209 406/528/209 409/531/209
f 409/531/209 372/466/209 359/453/209
f 372/466/208 409/531/208 413/535/208
f 413/535/208 370/464/208 372/466/208
f 370/464/207 413/535/218 415/537/218
f 415/537/218 368/462/207 370/464/207
f 368/462/152 415/537/255 417/539/255
f 417/539/255 364/458/152 368/462/152
f 364/458/203 417/539/256 419/541/259
f 419/541/259 365/459/204 364/458/203
f 365/459/224 419/541/260 421/543/263
f 421/543/263 394/490/225 365/459/224
f 394/488/225 421/544/263 423/547/266
f 423/547/266 390/484/219 394/488/225
f 390/484/219 423/547/266 425/549/269
f 425/549/269 362/456/220 390/484/219
f 362/456/199 425/549/270 410/532/273
f 410/532/273 358/452/200 362/456/199
f 358/452/16 410/532/187 406/528/187
f 406/528/187 359/453/16 358/452/16
f 411/553/16 349/550/16 348/551/16
f 348/551/16 407/552/16 411/553/16
f 424/555/271 350/554/106 349/550/106
f 349/550/106 411/553/272 424/555/271
f 422/557/267 351/556/274 350/554/274
f 350/554/274 424/555/268 422/557/267
f 420/559/264 352/558/13 351/556/13
f 351/556/13 422/557/265 420/559/264
f 418/563/261 353/560/275 352/561/275
f 352/561/275 420/562/262 418/563/261
f 416/565/257 354/564/82 353/560/82
f 353/560/82 418/563/258 416/565/257
f 414/567/152 355/566/152 354/564/152
f 354/564/152 416/565/152 414/567/152
f 412/569/254 356/568/254 355/566/254
f 355/566/254 414/567/254 412/569/254
f 408/571/253 357/570/253 356/568/253
f 356/568/253 412/569/253 408/571/253
f 407/552/252 348/551/209 357/570/209
f 357/570/209 408/571/252 407/552/252
f 429/575/276 426/572/276 427/573/277
f 427/573/277 428/574/277 429/575/276
f 431/577/187 427/573/187 426/572/187
f 426/572/187 430/576/187 431/577/187
f 433/579/208 429/575/208 428/574/208
f 428/574/208 432/578/208 433/579/208
f 435/581/207 433/579/207 432/578/278
f 432/578/278 434/580/278 435/581/207
f 437/583/255 435/581/255 434/580/255
f 434/580/255 436/582/255 437/583/255
f 439/585/282 437/583/279 436/582/280
f 436/582/280 438/584/281 439/585/282
f 441/587/286 439/585/283 438/584/284
f 438/584/284 440/586/285 441/587/286
f 443/589/290 441/587/287 440/586/288
f 440/586/288 442/588/289 443/589/290
f 445/591/293 443/589/291 442/588/289
f 442/588/289 444/590/292 445/591/293
f 430/576/297 445/591/294 444/590/295
f 444/590/295 431/577/296 430/576/297
f 248/593/298 426/572/276 429/575/276
f 429/575/276 249/592/298 248/593/298
f 249/592/208 429/575/208 433/579/208
f 433/579/208 250/594/208 249/592/208
f 250/594/299 433/579/207 435/581/207
f 435/581/207 251/595/299 250/594/299
f 251/595/10 435/581/255 437/583/255
f 437/583/255 252/596/10 251/595/10
f 252/596/11 437/583/279 439/585/282
f 439/585/282 253/597/11 252/596/11
f 253/597/300 439/585/283 441/587/286
f 441/587/286 254/598/300 253/597/300
f 254/598/13 441/587/287 443/589/290
f 443/589/290 255/599/13 254/598/13
f 255/599/4 443/589/291 445/591/293
f 445/591/293 256/600/4 255/599/4
f 256/600/301 445/591/294 430/576/297
f 430/576/297 257/601/301 256/600/301
f 257/601/302 430/576/187 426/572/187
f 426/572/187 248/593/302 257/601/302
f 427/573/187 431/577/187 377/471/16
f 377/471/16 376/470/16 427/573/187
f 431/577/296 444/590/295 379/473/213
f 379/473/213 377/471/212 431/577/296
f 444/590/292 442/588/289 400/496/232
f 400/496/232 379/473/231 444/590/292
f 442/588/289 440/586/288 402/498/303
f 402/498/303 400/496/232 442/588/289
f 440/586/285 438/584/284 382/476/236
f 382/476/236 402/498/235 440/586/285
f 438/584/281 436/582/280 383/477/217
f 383/477/217 382/476/216 438/584/281
f 436/582/255 434/580/255 385/479/152
f 385/479/152 383/477/152 436/582/255
f 434/580/278 432/578/278 387/481/218
f 387/481/218 385/479/218 434/580/278
f 432/578/208 428/574/208 389/483/208
f 389/483/208 387/481/208 432/578/208
f 428/574/277 427/573/277 376/470/209
f 376/470/209 389/483/209 428/574/277
f 449/605/109 446/602/109 447/603/109
f 447/603/109 448/604/109 449/605/109
f 451/607/21 447/603/21 446/602/82
f 446/602/82 450/606/82 451/607/21
f 453/609/108 449/605/108 448/604/304
f 448/604/304 452/608/304 453/609/108
f 455/611/305 453/609/305 452/608/274
f 452/608/274 454/610/274 455/611/305
f 457/613/306 455/611/306 454/610/306
f 454/610/306 456/612/306 457/613/306
f 459/615/310 457/613/307 456/612/308
f 456/612/308 458/614/309 459/615/310
f 461/617/314 459/615/311 458/614/312
f 458/614/312 460/616/313 461/617/314
f 463/619/317 461/617/314 460/616/315
f 460/616/315 462/618/316 463/619/317
f 465/623/320 463/620/317 462/621/318
f 462/621/318 464/622/319 465/623/320
f 450/606/324 465/623/321 464/622/322
f 464/622/322 451/607/323 450/606/324
f 469/627/325 466/624/325 467/625/326
f 467/625/326 468/626/326 469/627/325
f 471/629/82 467/625/82 466/624/82
f 466/624/82 470/628/82 471/629/82
f 473/631/108 469/627/108 468/626/108
f 468/626/108 472/630/108 473/631/108
f 475/633/327 473/631/327 472/630/305
f 472/630/305 474/632/305 475/633/327
f 477/635/306 475/633/306 474/632/306
f 474/632/306 476/634/306 477/635/306
f 479/637/331 477/635/328 476/634/329
f 476/634/329 478/636/330 479/637/331
f 481/639/335 479/637/332 478/636/333
f 478/636/333 480/638/334 481/639/335
f 483/641/339 481/639/336 480/638/337
f 480/638/337 482/640/338 483/641/339
f 485/643/342 483/641/340 482/640/338
f 482/640/338 484/642/341 485/643/342
f 470/628/346 485/643/343 484/642/344
f 484/642/344 471/629/345 470/628/346
f 161/207/109 446/602/109 449/605/109
f 449/605/109 174/220/109 161/207/109
f 174/220/108 449/605/108 453/609/108
f 453/609/108 172/218/108 174/220/108
f 172/218/107 453/609/305 455/611/305
f 455/611/305 170/216/107 172/218/107
f 170/216/106 455/611/306 457/613/306
f 457/613/306 166/212/106 170/216/106
f 166/212/102 457/613/307 459/615/310
f 459/615/310 167/213/103 166/212/102
f 167/213/126 459/615/311 461/617/314
f 461/617/314 196/242/127 167/213/126
f 196/242/127 461/617/314 463/619/317
f 463/619/317 192/243/120 196/242/127
f 192/238/120 463/620/317 465/623/320
f 465/623/320 164/210/121 192/238/120
f 164/210/98 465/623/321 450/606/324
f 450/606/324 160/206/99 164/210/98
f 160/206/21 450/606/82 446/602/82
f 446/602/82 161/207/21 160/206/21
f 50/645/347 466/624/325 469/627/325
f 469/627/325 51/644/347 50/645/347
f 51/644/108 469/627/108 473/631/108
f 473/631/108 52/646/108 51/644/108
f 52/646/348 473/631/327 475/633/327
f 475/633/327 53/647/348 52/646/348
f 53/647/150 475/633/306 477/635/306
f 477/635/306 54/648/150 53/647/150
f 54/648/6 477/635/328 479/637/331
f 479/637/331 55/649/6 54/648/6
f 55/649/349 479/637/332 481/639/335
f 481/639/335 56/650/349 55/649/349
f 56/650/18 481/639/336 483/641/339
f 483/641/339 57/651/18 56/650/18
f 57/651/145 483/641/340 485/643/342
f 485/643/342 58/652/145 57/651/145
f 58/652/350 485/643/343 470/628/346
f 470/628/346 59/653/350 58/652/350
f 59/653/351 470/628/82 466/624/82
f 466/624/82 50/645/351 59/653/351
f 451/657/21 151/654/21 150/655/21
f 150/655/21 447/656/21 451/657/21
f 464/659/322 152/658/20 151/654/20
f 151/654/20 451/657/323 464/659/322
f 462/661/318 153/660/254 152/658/254
f 152/658/254 464/659/319 462/661/318
f 460/665/315 154/662/18 153/663/18
f 153/663/18 462/664/316 460/665/315
f 458/667/312 155/666/352 154/662/352
f 154/662/352 460/665/313 458/667/312
f 456/669/308 156/668/187 155/666/187
f 155/666/187 458/667/309 456/669/308
f 454/671/306 157/670/306 156/668/306
f 156/668/306 456/669/306 454/671/306
f 452/673/274 158/672/274 157/670/274
f 157/670/274 454/671/274 452/673/274
f 448/675/304 159/674/304 158/672/304
f 158/672/304 452/673/304 448/675/304
f 447/656/109 150/655/109 159/674/109
f 159/674/109 448/675/109 447/656/109
f 467/625/82 471/629/82 179/225/110
f 179/225/110 178/224/110 467/625/82
f 471/629/345 484/642/344 181/227/114
f 181/227/114 179/225/113 471/629/345
f 484/642/341 482/640/338 202/250/132
f 202/250/132 181/227/131 484/642/341
f 482/640/338 480/638/337 204/252/353
f 204/252/353 202/250/132 482/640/338
f 480/638/334 478/636/333 184/230/137
f 184/230/137 204/252/136 480/638/334
f 478/636/330 476/634/329 185/231/118
f 185/231/118 184/230/117 478/636/330
f 476/634/306 474/632/306 187/233/15
f 187/233/15 185/231/15 476/634/306
f 474/632/305 472/630/305 189/235/119
f 189/235/119 187/233/119 474/632/305
f 472/630/108 468/626/108 191/237/108
f 191/237/108 189/235/108 472/630/108
f 468/626/326 467/625/326 178/224/109
f 178/224/109 191/237/109 468/626/326
f 489/679/249 486/676/249 487/677/249
f 487/677/249 488/678/249 489/679/249
f 488/678/249 487/677/249 490/680/249
f 490/680/249 491/681/249 488/678/249
f 493/683/249 489/679/249 488/678/249
f 488/678/249 492/682/249 493/683/249
f 492/682/249 488/678/249 491/681/249
f 491/681/249 494/684/249 492/682/249
