# File produced by Open Asset Import Library (http://www.assimp.sf.net)
# (assimp v3.1.137539927)

mtllib trash%20bag%20model.mtl

# vertex positions
v 29.916571 5.181541 17.732414
v 41.709019 7.560577 -0.013779
v 69.507271 15.890648 -1.503801
v 54.895348 19.667488 38.069542
v 31.523232 4.894356 -20.929922
v 52.972786 20.231239 -40.190285
v 15.558337 6.153465 -30.787329
v 19.516558 18.622147 -64.644585
v -8.764814 6.661621 -29.819178
v -22.386650 17.643951 -64.276291
v -30.052023 4.178001 -17.856691
v -55.370659 20.057327 -38.656994
v -41.725613 7.402649 -0.008082
v -68.132034 17.589180 1.480449
v -31.523247 4.894356 20.929926
v -54.470139 18.911461 41.173805
v -15.736923 2.192627 31.480108
v -19.940479 16.399612 65.971199
v 8.855613 4.227829 30.137192
v 22.624662 16.892456 65.459351
v 90.792786 40.645683 -8.911749
v 77.674103 41.241196 45.388554
v 67.301598 41.789635 -58.961864
v 20.554924 40.104553 -89.743546
v -35.247471 41.559761 -81.354897
v -79.443565 40.140144 -46.449398
v -91.120865 40.322609 8.987371
v -67.290871 41.848213 58.944145
v -20.302677 40.224510 89.506897
v 35.904179 40.617271 83.066368
v 100.657661 69.308701 -20.363850
v 88.532494 70.065941 39.303524
v 66.911583 69.587364 -68.793198
v 14.720286 70.307503 -98.346436
v -46.108269 70.505508 -84.397903
v -87.254028 70.166504 -38.726860
v -99.051155 69.571037 19.968437
v -68.166534 69.483101 70.164642
v -14.816212 70.134369 97.886177
v 49.629925 70.328697 91.732094
v 94.615784 102.572899 -30.855215
v 88.647125 102.729774 26.463470
v 59.736931 101.048904 -74.007446
v 6.500258 102.149323 -91.483795
v -49.890736 102.107094 -72.353073
v -86.895042 102.432159 -25.693560
v -89.094627 101.161263 29.654057
v -60.849941 101.399567 76.305016
v -6.890049 103.770874 95.320107
v 51.364773 103.760880 74.349327
v 79.412140 133.063507 -37.641022
v 81.115051 134.681976 13.106305
v 48.698231 132.948212 -73.530800
v -0.840234 133.664536 -81.105186
v -49.746502 134.253143 -57.922276
v -78.026108 133.018661 -11.897217
v -76.836807 132.285736 36.545483
v -48.499748 132.865219 73.272575
v 0.859628 135.132935 83.200897
v 51.167103 135.752365 59.248123
v 62.616219 161.203217 -38.767754
v 66.248802 162.688171 2.220792
v 36.138836 161.930328 -65.603828
v -4.566849 160.904343 -64.891052
v -43.335819 162.404068 -41.904964
v -63.705856 160.399216 -1.407022
v -61.283485 160.333603 38.043243
v -37.240295 162.587112 68.626427
v 5.196024 163.623627 68.727791
v 44.408848 163.875610 42.839443
v 40.658619 181.088837 -30.701618
v 43.687435 181.712357 -3.680260
v 22.135311 180.487854 -45.424938
v -4.237872 180.293274 -42.666710
v -30.371340 182.436829 -24.897686
v -42.420353 180.003769 4.125027
v -40.977070 181.862579 30.992643
v -22.576275 182.353821 46.432758
v 4.497087 180.975571 43.002178
v 30.451542 182.911026 25.124159
v 18.303366 192.618729 -16.093067
v 16.929239 195.105652 -3.354567
v 9.939382 192.805679 -22.303122
v -2.458879 192.761047 -20.171871
v -11.849415 195.105652 -8.502534
v -20.087093 192.896255 3.429898
v -18.570719 192.914017 15.943024
v -9.952237 192.917755 22.369169
v 2.469458 192.889206 20.275597
v 13.965747 192.949158 10.407537
v 1.962230 195.921814 14.966629
v -7.188886 195.921814 16.779942
v -13.594095 195.921814 12.183889
v -14.806827 195.921814 2.934003
v 10.363842 195.921814 7.436572
v -10.363853 195.921814 -7.436572
v 14.547952 196.011932 -2.891130
v -1.962241 195.921814 -14.966631
v 13.223399 195.983170 -11.903888
v 7.074137 196.042038 -16.512714
v 2.276670 197.462265 17.364964
v -8.340872 197.462265 19.468847
v -15.772490 197.462265 14.136303
v -17.179554 197.462265 3.404164
v 12.024600 197.462265 8.628247
v -12.024611 197.462265 -8.628248
v 15.310691 197.557526 -3.077189
v -2.276681 197.462265 -17.364964
v 13.938325 197.591309 -12.508872
v 7.478173 197.562256 -17.455511
v 2.103437 199.599960 16.043663
v -7.706216 199.599960 17.987459
v -14.572359 199.599960 13.060671
v -15.872360 199.599960 3.145141
v 11.109646 199.599960 7.971725
v -11.109658 199.599960 -7.971724
v 14.728685 199.359772 -2.919909
v -2.103449 199.599960 -16.043663
v 13.378352 199.274902 -12.007648
v 7.099707 199.266937 -16.551342
v 1.060911 202.086456 13.820366
v -5.937731 202.147568 15.025119
v -10.298999 201.356125 11.265158
v -11.662562 201.273590 3.920436
v 7.151901 201.736694 5.086445
v -6.485538 201.329132 -4.620497
v 12.348342 200.133575 -3.540348
v -0.908531 200.536316 -13.390303
v 11.635090 200.466766 -11.090603
v 6.404464 200.479965 -14.467060
v -4.319448 209.117493 17.315023
v 0.471618 212.991516 15.655519
v -8.447060 210.056488 8.568387
v -7.164873 208.106476 14.158200
v 0.399324 210.589722 7.194279
v -5.615912 209.504364 3.132936
v 6.574090 209.823608 -8.957344
v 13.847478 214.621475 -12.103976
v 5.604079 211.243515 -18.775379
v 4.882794 208.709106 -12.473920
v 10.651242 210.844315 -18.512087
v 8.690390 209.378494 -20.674702
v 12.706173 204.426208 -6.982357
v 6.722772 206.089417 -3.000610
v 1.162888 205.718338 -8.814995
v 2.971832 203.490921 -14.765115
v 10.905673 203.389648 -13.499844
v 7.231877 203.318909 -16.240911

# UV coordinates
vt 0.567965 0.387878
vt 0.615303 0.285580
vt 0.563831 0.147575
vt 0.669496 0.286976
vt 0.578320 0.215935
vt 0.445509 0.164530
vt 0.506331 0.229497
vt 0.369900 0.239397
vt 0.422684 0.300219
vt 0.294863 0.345476
vt 0.358347 0.407616
vt 0.256006 0.507875
vt 0.311239 0.509801
vt 0.362383 0.647128
vt 0.348493 0.579708
vt 0.481791 0.630566
vt 0.420230 0.566194
vt 0.556700 0.556112
vt 0.503711 0.495443
vt 0.631467 0.449861
vt 0.404096 0.130599
vt 0.581992 0.148367
vt 0.299401 0.197523
vt 0.232881 0.318133
vt 0.203911 0.472466
vt 0.340872 0.646259
vt 0.521600 0.664224
vt 0.627698 0.596870
vt 0.693481 0.477385
vt 0.721923 0.322206
vt 0.301280 0.159870
vt 0.483807 0.107738
vt 0.194090 0.285992
vt 0.170631 0.444240
vt 0.259597 0.613631
vt 0.441658 0.688542
vt 0.624459 0.634964
vt 0.731709 0.508775
vt 0.754980 0.351273
vt 0.664875 0.180782
vt 0.236609 0.190895
vt 0.401018 0.095737
vt 0.151971 0.359080
vt 0.180967 0.544063
vt 0.327210 0.680381
vt 0.523473 0.699506
vt 0.690148 0.602689
vt 0.772759 0.437950
vt 0.742359 0.250919
vt 0.596658 0.115186
vt 0.186688 0.233350
vt 0.331929 0.106186
vt 0.133760 0.422314
vt 0.208258 0.615108
vt 0.395538 0.721661
vt 0.593743 0.689615
vt 0.741679 0.558335
vt 0.793268 0.370308
vt 0.716009 0.180247
vt 0.527119 0.074999
vt 0.140506 0.295647
vt 0.255056 0.133857
vt 0.127640 0.498705
vt 0.250447 0.680217
vt 0.465254 0.741941
vt 0.670285 0.659165
vt 0.784889 0.497693
vt 0.798753 0.294520
vt 0.672580 0.116738
vt 0.457538 0.054641
vt 0.116148 0.370341
vt 0.166739 0.201316
vt 0.081355 0.583083
vt 0.282480 0.729020
vt 0.554628 0.752187
vt 0.758223 0.592501
vt 0.809466 0.423554
vt 0.845417 0.210595
vt 0.646405 0.061426
vt 0.371098 0.040216
vt 0.035543 0.452784
vt 0.113507 0.236302
vt 0.092587 0.616140
vt 0.297076 0.750532
vt 0.592712 0.755653
vt 0.809852 0.559376
vt 0.890592 0.342702
vt 0.835051 0.178528
vt 0.632422 0.042444
vt 0.332575 0.035376
vt 0.619786 0.024359
vt 0.836260 0.161698
vt 0.903308 0.351484
vt 0.812537 0.581445
vt 0.328151 0.023693
vt 0.597205 0.767527
vt 0.110834 0.214157
vt 0.309688 0.768590
vt 0.022697 0.444261
vt 0.091582 0.633045
vt 0.693280 0.876464
vt 0.683144 0.857632
vt 0.688717 0.856668
vt 0.699121 0.873576
vt 0.723569 0.903135
vt 0.706203 0.890596
vt 0.709515 0.885581
vt 0.725249 0.897654
vt 0.673306 0.835707
vt 0.677747 0.832592
vt 0.744627 0.915708
vt 0.747154 0.911213
vt 0.850208 0.934110
vt 0.826381 0.937111
vt 0.824311 0.931846
vt 0.850556 0.928697
vt 0.766328 0.927175
vt 0.770140 0.922896
vt 0.805041 0.938314
vt 0.804476 0.932337
vt 0.786107 0.935437
vt 0.788848 0.929520
vt 0.692881 0.853487
vt 0.703056 0.869924
vt 0.713673 0.881952
vt 0.728945 0.893867
vt 0.682709 0.830943
vt 0.749650 0.906775
vt 0.824836 0.926640
vt 0.849385 0.923602
vt 0.771432 0.917757
vt 0.805439 0.926906
vt 0.789624 0.924204
vt 0.696102 0.849976
vt 0.706704 0.865954
vt 0.718324 0.878651
vt 0.732905 0.891130
vt 0.686944 0.830046
vt 0.751693 0.903145
vt 0.826156 0.922065
vt 0.847950 0.919518
vt 0.771710 0.912949
vt 0.806988 0.921425
vt 0.789977 0.918816
vt 0.831500 0.831972
vt 0.833988 0.831686
vt 0.827370 0.841432
vt 0.829280 0.832548
vt 0.834839 0.840995
vt 0.831461 0.849163
vt 0.963087 0.960860
vt 0.964703 0.966327
vt 0.959185 0.971990
vt 0.960071 0.964752
vt 0.962330 0.971925
vt 0.960465 0.973431
vt 0.969745 0.922522
vt 0.979935 0.946465
vt 0.973404 0.957721
vt 0.958151 0.948326
vt 0.939383 0.974704
vt 0.920549 0.955753
vt 0.947732 0.956298
vt 0.950889 0.975175
vt 0.979207 0.969712
vt 0.971546 0.971886
vt 0.962503 0.984089
vt 0.962461 0.978683
vt 0.824132 0.818884
vt 0.848531 0.826141
vt 0.804023 0.855165
vt 0.808975 0.832390
vt 0.863549 0.850616
vt 0.812953 0.880804

# vertex normals
vn 0.187392 -0.974828 0.120811
vn 0.277459 -0.955369 0.101423
vn 0.592515 -0.803748 -0.053998
vn 0.439268 -0.829246 0.345535
vn 0.238626 -0.938059 -0.251202
vn 0.450053 -0.817898 -0.358461
vn 0.058044 -0.981885 -0.180370
vn 0.192091 -0.854603 -0.482447
vn 0.009737 -0.985418 -0.169870
vn -0.226760 -0.822064 -0.522293
vn -0.214811 -0.962167 -0.167602
vn -0.424876 -0.837672 -0.343200
vn -0.341560 -0.937186 -0.070840
vn -0.572407 -0.819733 0.019685
vn -0.357037 -0.919818 0.162665
vn -0.481508 -0.798400 0.361534
vn -0.089102 -0.978068 0.188265
vn -0.194336 -0.826677 0.528051
vn 0.055210 -0.991534 0.117528
vn 0.227999 -0.829387 0.510034
vn 0.847921 -0.524244 -0.078729
vn 0.787526 -0.459960 0.410169
vn 0.630870 -0.495559 -0.597013
vn 0.170253 -0.476035 -0.862789
vn -0.354738 -0.472173 -0.806978
vn -0.787221 -0.434698 -0.437402
vn -0.858544 -0.502322 0.102832
vn -0.641373 -0.484651 0.594772
vn -0.187848 -0.455518 0.870182
vn 0.329681 -0.542304 0.772798
vn 0.972940 -0.061395 -0.222754
vn 0.909294 -0.021531 0.415597
vn 0.650367 -0.075057 -0.755903
vn 0.086418 0.028453 -0.995853
vn -0.531466 0.076881 -0.843584
vn -0.898457 0.041325 -0.437112
vn -0.976543 0.007045 0.215205
vn -0.669327 -0.093866 0.737014
vn -0.142584 -0.070358 0.987279
vn 0.549914 0.077541 0.831614
vn 0.916292 0.255331 -0.308570
vn 0.898155 0.282482 0.336929
vn 0.543763 0.189493 -0.817566
vn -0.055786 0.298434 -0.952799
vn -0.573135 0.311216 -0.758064
vn -0.893072 0.333789 -0.301675
vn -0.930110 0.255022 0.264308
vn -0.582881 0.208712 0.785295
vn 0.049723 0.329775 0.942749
vn 0.571191 0.347267 0.743738
vn 0.837627 0.416960 -0.352882
vn 0.857237 0.469209 0.212102
vn 0.423435 0.355611 -0.833213
vn -0.183133 0.421362 -0.888210
vn -0.614090 0.452898 -0.646357
vn -0.864674 0.457637 -0.207142
vn -0.857536 0.403938 0.318536
vn -0.480197 0.355000 0.802113
vn 0.166305 0.414881 0.894548
vn 0.615825 0.450386 0.646461
vn 0.704581 0.620658 -0.344019
vn 0.750670 0.649473 0.121161
vn 0.238900 0.636231 -0.733578
vn -0.242581 0.619071 -0.746930
vn -0.586553 0.624832 -0.515307
vn -0.770257 0.624818 -0.127697
vn -0.772640 0.566195 0.287141
vn -0.300506 0.622605 0.722537
vn 0.256646 0.651803 0.713643
vn 0.575152 0.642522 0.506326
vn 0.439672 0.851390 -0.286050
vn 0.555738 0.828816 0.064952
vn 0.102196 0.837187 -0.537284
vn -0.212414 0.794989 -0.568219
vn -0.470410 0.817033 -0.333424
vn -0.619821 0.778308 -0.100295
vn -0.488098 0.843900 0.222695
vn -0.086099 0.874113 0.478031
vn 0.212631 0.828540 0.517985
vn 0.434199 0.836412 0.334494
vn 0.339400 0.909403 -0.240404
vn 0.417334 0.905620 0.075395
vn 0.082932 0.900829 -0.426180
vn -0.194335 0.878022 -0.437392
vn -0.364425 0.881983 -0.298832
vn -0.465251 0.882870 -0.063888
vn -0.332402 0.925921 0.179385
vn -0.066348 0.916614 0.394230
vn 0.193972 0.896110 0.399201
vn 0.371877 0.885297 0.279206
vn 0.400915 0.496805 0.769709
vn -0.154593 0.555811 0.816808
vn -0.728454 0.563294 0.389944
vn -0.850987 0.504253 -0.146800
vn 0.733089 0.316801 0.601846
vn -0.809632 0.290868 -0.509795
vn 0.773928 0.632749 0.025776
vn -0.326360 0.310116 -0.892926
vn 0.590065 0.742611 -0.316784
vn 0.138156 0.739972 -0.658296
vn 0.455820 -0.283196 0.843817
vn -0.156106 -0.348288 0.924298
vn -0.816398 -0.349669 0.459592
vn -0.946912 -0.284398 -0.149918
vn 0.842682 -0.094579 0.530039
vn -0.787763 -0.258069 -0.559313
vn 0.993455 -0.062825 0.095397
vn -0.402770 -0.282339 -0.870667
vn 0.875373 -0.073578 -0.477816
vn 0.267942 -0.271294 -0.924450
vn 0.383319 0.617353 0.686980
vn -0.131646 0.708005 0.693829
vn -0.475003 0.834062 0.280559
vn -0.574361 0.812051 -0.103357
vn 0.519713 0.805603 0.284434
vn -0.410793 0.865093 -0.287859
vn 0.661940 0.748472 0.040298
vn -0.263054 0.797422 -0.543066
vn 0.636727 0.686514 -0.351108
vn 0.158488 0.725791 -0.669409
vn 0.666452 0.257547 0.699651
vn -0.206854 0.173912 0.962791
vn -0.731443 0.531010 0.427808
vn -0.741781 0.660586 -0.115700
vn 0.531101 0.819954 -0.213556
vn -0.381808 0.901886 -0.202049
vn 0.782729 0.568286 0.253744
vn -0.354310 0.836561 -0.417888
vn 0.806483 0.312119 -0.502162
vn 0.170524 0.278165 -0.945275
vn -0.104782 0.132716 0.985600
vn 0.318944 0.924115 0.210441
vn -0.687165 0.726321 0.016202
vn -0.775831 0.442181 0.450069
vn 0.491275 0.780791 -0.386023
vn -0.165549 0.812076 -0.559577
vn -0.295423 0.670748 0.680311
vn 0.324238 0.881129 0.344212
vn -0.645243 0.756587 -0.106012
vn -0.588129 0.758578 0.280469
vn 0.887107 -0.160483 -0.432766
vn -0.028377 -0.185414 -0.982251
vn 0.837838 0.247950 0.486362
vn -0.003648 0.804826 0.593500
vn -0.536565 0.834154 0.127616
vn -0.776429 0.256921 -0.575456
vn 0.826555 -0.286074 -0.484735
vn 0.184721 -0.524416 -0.831183

# Mesh
g pSphere2_0
usemtl DefaultMaterial
f 4/4/4 1/1/1 2/2/2
f 2/2/2 3/3/3 4/4/4
f 3/3/3 2/2/2 5/5/5
f 5/5/5 6/6/6 3/3/3
f 6/6/6 5/5/5 7/7/7
f 7/7/7 8/8/8 6/6/6
f 8/8/8 7/7/7 9/9/9
f 9/9/9 10/10/10 8/8/8
f 10/10/10 9/9/9 11/11/11
f 11/11/11 12/12/12 10/10/10
f 12/12/12 11/11/11 13/13/13
f 13/13/13 14/14/14 12/12/12
f 14/14/14 13/13/13 15/15/15
f 15/15/15 16/16/16 14/14/14
f 16/16/16 15/15/15 17/17/17
f 17/17/17 18/18/18 16/16/16
f 18/18/18 17/17/17 19/19/19
f 19/19/19 20/20/20 18/18/18
f 20/20/20 19/19/19 1/1/1
f 1/1/1 4/4/4 20/20/20
f 22/22/22 4/4/4 3/3/3
f 3/3/3 21/21/21 22/22/22
f 21/21/21 3/3/3 6/6/6
f 6/6/6 23/23/23 21/21/21
f 23/23/23 6/6/6 8/8/8
f 8/8/8 24/24/24 23/23/23
f 24/24/24 8/8/8 10/10/10
f 10/10/10 25/25/25 24/24/24
f 25/25/25 10/10/10 12/12/12
f 12/12/12 26/26/26 25/25/25
f 26/26/26 12/12/12 14/14/14
f 14/14/14 27/27/27 26/26/26
f 27/27/27 14/14/14 16/16/16
f 16/16/16 28/28/28 27/27/27
f 28/28/28 16/16/16 18/18/18
f 18/18/18 29/29/29 28/28/28
f 29/29/29 18/18/18 20/20/20
f 20/20/20 30/30/30 29/29/29
f 30/30/30 20/20/20 4/4/4
f 4/4/4 22/22/22 30/30/30
f 32/32/32 22/22/22 21/21/21
f 21/21/21 31/31/31 32/32/32
f 31/31/31 21/21/21 23/23/23
f 23/23/23 33/33/33 31/31/31
f 33/33/33 23/23/23 24/24/24
f 24/24/24 34/34/34 33/33/33
f 34/34/34 24/24/24 25/25/25
f 25/25/25 35/35/35 34/34/34
f 35/35/35 25/25/25 26/26/26
f 26/26/26 36/36/36 35/35/35
f 36/36/36 26/26/26 27/27/27
f 27/27/27 37/37/37 36/36/36
f 37/37/37 27/27/27 28/28/28
f 28/28/28 38/38/38 37/37/37
f 38/38/38 28/28/28 29/29/29
f 29/29/29 39/39/39 38/38/38
f 39/39/39 29/29/29 30/30/30
f 30/30/30 40/40/40 39/39/39
f 40/40/40 30/30/30 22/22/22
f 22/22/22 32/32/32 40/40/40
f 42/42/42 32/32/32 31/31/31
f 31/31/31 41/41/41 42/42/42
f 41/41/41 31/31/31 33/33/33
f 33/33/33 43/43/43 41/41/41
f 43/43/43 33/33/33 34/34/34
f 34/34/34 44/44/44 43/43/43
f 44/44/44 34/34/34 35/35/35
f 35/35/35 45/45/45 44/44/44
f 45/45/45 35/35/35 36/36/36
f 36/36/36 46/46/46 45/45/45
f 46/46/46 36/36/36 37/37/37
f 37/37/37 47/47/47 46/46/46
f 47/47/47 37/37/37 38/38/38
f 38/38/38 48/48/48 47/47/47
f 48/48/48 38/38/38 39/39/39
f 39/39/39 49/49/49 48/48/48
f 49/49/49 39/39/39 40/40/40
f 40/40/40 50/50/50 49/49/49
f 50/50/50 40/40/40 32/32/32
f 32/32/32 42/42/42 50/50/50
f 52/52/52 42/42/42 41/41/41
f 41/41/41 51/51/51 52/52/52
f 51/51/51 41/41/41 43/43/43
f 43/43/43 53/53/53 51/51/51
f 53/53/53 43/43/43 44/44/44
f 44/44/44 54/54/54 53/53/53
f 54/54/54 44/44/44 45/45/45
f 45/45/45 55/55/55 54/54/54
f 55/55/55 45/45/45 46/46/46
f 46/46/46 56/56/56 55/55/55
f 56/56/56 46/46/46 47/47/47
f 47/47/47 57/57/57 56/56/56
f 57/57/57 47/47/47 48/48/48
f 48/48/48 58/58/58 57/57/57
f 58/58/58 48/48/48 49/49/49
f 49/49/49 59/59/59 58/58/58
f 59/59/59 49/49/49 50/50/50
f 50/50/50 60/60/60 59/59/59
f 60/60/60 50/50/50 42/42/42
f 42/42/42 52/52/52 60/60/60
f 62/62/62 52/52/52 51/51/51
f 51/51/51 61/61/61 62/62/62
f 61/61/61 51/51/51 53/53/53
f 53/53/53 63/63/63 61/61/61
f 63/63/63 53/53/53 54/54/54
f 54/54/54 64/64/64 63/63/63
f 64/64/64 54/54/54 55/55/55
f 55/55/55 65/65/65 64/64/64
f 65/65/65 55/55/55 56/56/56
f 56/56/56 66/66/66 65/65/65
f 66/66/66 56/56/56 57/57/57
f 57/57/57 67/67/67 66/66/66
f 67/67/67 57/57/57 58/58/58
f 58/58/58 68/68/68 67/67/67
f 68/68/68 58/58/58 59/59/59
f 59/59/59 69/69/69 68/68/68
f 69/69/69 59/59/59 60/60/60
f 60/60/60 70/70/70 69/69/69
f 70/70/70 60/60/60 52/52/52
f 52/52/52 62/62/62 70/70/70
f 72/72/72 62/62/62 61/61/61
f 61/61/61 71/71/71 72/72/72
f 71/71/71 61/61/61 63/63/63
f 63/63/63 73/73/73 71/71/71
f 73/73/73 63/63/63 64/64/64
f 64/64/64 74/74/74 73/73/73
f 74/74/74 64/64/64 65/65/65
f 65/65/65 75/75/75 74/74/74
f 75/75/75 65/65/65 66/66/66
f 66/66/66 76/76/76 75/75/75
f 76/76/76 66/66/66 67/67/67
f 67/67/67 77/77/77 76/76/76
f 77/77/77 67/67/67 68/68/68
f 68/68/68 78/78/78 77/77/77
f 78/78/78 68/68/68 69/69/69
f 69/69/69 79/79/79 78/78/78
f 79/79/79 69/69/69 70/70/70
f 70/70/70 80/80/80 79/79/79
f 80/80/80 70/70/70 62/62/62
f 62/62/62 72/72/72 80/80/80
f 82/82/82 72/72/72 71/71/71
f 71/71/71 81/81/81 82/82/82
f 81/81/81 71/71/71 73/73/73
f 73/73/73 83/83/83 81/81/81
f 83/83/83 73/73/73 74/74/74
f 74/74/74 84/84/84 83/83/83
f 84/84/84 74/74/74 75/75/75
f 75/75/75 85/85/85 84/84/84
f 85/85/85 75/75/75 76/76/76
f 76/76/76 86/86/86 85/85/85
f 86/86/86 76/76/76 77/77/77
f 77/77/77 87/87/87 86/86/86
f 87/87/87 77/77/77 78/78/78
f 78/78/78 88/88/88 87/87/87
f 88/88/88 78/78/78 79/79/79
f 79/79/79 89/89/89 88/88/88
f 89/89/89 79/79/79 80/80/80
f 80/80/80 90/90/90 89/89/89
f 90/90/90 80/80/80 72/72/72
f 72/72/72 82/82/82 90/90/90
f 5/5/5 2/2/2 1/1/1
f 1/1/1 7/7/7 5/5/5
f 7/7/7 1/1/1 19/19/19
f 19/19/19 9/9/9 7/7/7
f 9/9/9 19/19/19 17/17/17
f 17/17/17 11/11/11 9/9/9
f 11/11/11 17/17/17 15/15/15
f 15/15/15 13/13/13 11/11/11
f 92/92/92 88/88/88 89/89/89
f 89/89/89 91/91/91 92/92/92
f 94/94/94 86/86/86 87/87/87
f 87/87/87 93/93/93 94/94/94
f 93/93/93 87/87/87 88/88/88
f 88/88/88 92/92/92 93/93/93
f 91/91/91 89/89/89 90/90/90
f 90/90/90 95/95/95 91/91/91
f 96/96/96 85/85/85 86/86/86
f 86/86/86 94/94/94 96/96/96
f 95/95/95 90/90/90 82/82/82
f 82/82/82 97/97/97 95/95/95
f 98/98/98 84/84/84 85/85/85
f 85/85/85 96/96/96 98/98/98
f 97/97/97 82/82/82 81/81/81
f 81/81/81 99/99/99 97/97/97
f 99/99/99 81/81/81 83/83/83
f 83/83/83 100/100/100 99/99/99
f 100/100/100 83/83/83 84/84/84
f 84/84/84 98/98/98 100/100/100
f 102/104/102 92/101/92 91/102/91
f 91/102/91 101/103/101 102/104/102
f 104/108/104 94/105/94 93/106/93
f 93/106/93 103/107/103 104/108/104
f 103/107/103 93/106/93 92/101/92
f 92/101/92 102/104/102 103/107/103
f 101/103/101 91/102/91 95/109/95
f 95/109/95 105/110/105 101/103/101
f 106/112/106 96/111/96 94/105/94
f 94/105/94 104/108/104 106/112/106
f 105/116/105 95/113/95 97/114/97
f 97/114/97 107/115/107 105/116/105
f 108/118/108 98/117/98 96/111/96
f 96/111/96 106/112/106 108/118/108
f 107/115/107 97/114/97 99/119/99
f 99/119/99 109/120/109 107/115/107
f 109/120/109 99/119/99 100/121/100
f 100/121/100 110/122/110 109/120/109
f 110/122/110 100/121/100 98/117/98
f 98/117/98 108/118/108 110/122/110
f 112/124/112 102/104/102 101/103/101
f 101/103/101 111/123/111 112/124/112
f 114/126/114 104/108/104 103/107/103
f 103/107/103 113/125/113 114/126/114
f 113/125/113 103/107/103 102/104/102
f 102/104/102 112/124/112 113/125/113
f 111/123/111 101/103/101 105/110/105
f 105/110/105 115/127/115 111/123/111
f 116/128/116 106/112/106 104/108/104
f 104/108/104 114/126/114 116/128/116
f 115/130/115 105/116/105 107/115/107
f 107/115/107 117/129/117 115/130/115
f 118/131/118 108/118/108 106/112/106
f 106/112/106 116/128/116 118/131/118
f 117/129/117 107/115/107 109/120/109
f 109/120/109 119/132/119 117/129/117
f 119/132/119 109/120/109 110/122/110
f 110/122/110 120/133/120 119/132/119
f 120/133/120 110/122/110 108/118/108
f 108/118/108 118/131/118 120/133/120
f 122/135/122 112/124/112 111/123/111
f 111/123/111 121/134/121 122/135/122
f 124/137/124 114/126/114 113/125/113
f 113/125/113 123/136/123 124/137/124
f 123/136/123 113/125/113 112/124/112
f 112/124/112 122/135/122 123/136/123
f 121/134/121 111/123/111 115/127/115
f 115/127/115 125/138/125 121/134/121
f 126/139/126 116/128/116 114/126/114
f 114/126/114 124/137/124 126/139/126
f 125/141/125 115/130/115 117/129/117
f 117/129/117 127/140/127 125/141/125
f 128/142/128 118/131/118 116/128/116
f 116/128/116 126/139/126 128/142/128
f 127/140/127 117/129/117 119/132/119
f 119/132/119 129/143/129 127/140/127
f 129/143/129 119/132/119 120/133/120
f 120/133/120 130/144/130 129/143/129
f 130/144/130 120/133/120 118/131/118
f 118/131/118 128/142/128 130/144/130
f 134/148/134 131/145/131 132/146/132
f 132/146/132 133/147/133 134/148/134
f 133/147/133 132/146/132 135/149/135
f 135/149/135 136/150/136 133/147/133
f 140/154/140 137/151/137 138/152/138
f 138/152/138 139/153/139 140/154/140
f 139/153/139 138/152/138 141/155/141
f 141/155/141 142/156/142 139/153/139
f 144/160/144 125/157/125 127/158/127
f 127/158/127 143/159/143 144/160/144
f 146/164/146 128/161/128 126/162/126
f 126/162/126 145/163/145 146/164/146
f 145/163/145 126/162/126 125/157/125
f 125/157/125 144/160/144 145/163/145
f 143/159/143 127/158/127 129/165/129
f 129/165/129 147/166/147 143/159/143
f 147/166/147 129/165/129 130/167/130
f 130/167/130 148/168/148 147/166/147
f 148/168/148 130/167/130 128/161/128
f 128/161/128 146/164/146 148/168/148
f 131/145/131 122/169/122 121/170/121
f 121/170/121 132/146/132 131/145/131
f 133/147/133 124/171/124 123/172/123
f 123/172/123 134/148/134 133/147/133
f 134/148/134 123/172/123 122/169/122
f 122/169/122 131/145/131 134/148/134
f 132/146/132 121/170/121 125/173/125
f 125/173/125 135/149/135 132/146/132
f 135/149/135 125/173/125 126/174/126
f 126/174/126 136/150/136 135/149/135
f 136/150/136 126/174/126 124/171/124
f 124/171/124 133/147/133 136/150/136
f 137/151/137 144/160/144 143/159/143
f 143/159/143 138/152/138 137/151/137
f 139/153/139 146/164/146 145/163/145
f 145/163/145 140/154/140 139/153/139
f 140/154/140 145/163/145 144/160/144
f 144/160/144 137/151/137 140/154/140
f 138/152/138 143/159/143 147/166/147
f 147/166/147 141/155/141 138/152/138
f 141/155/141 147/166/147 148/168/148
f 148/168/148 142/156/142 141/155/141
f 142/156/142 148/168/148 146/164/146
f 146/164/146 139/153/139 142/156/142
